<svg width="140" height="133" viewBox="0 0 140 133" fill="none" xmlns="http://www.w3.org/2000/svg">
<g clip-path="url(#clip0_185_2)">
<path fill-rule="evenodd" clip-rule="evenodd" d="M69.8 35.5L67.5 42.8C68.2 43.2 68.9 43.7 68.8 44.7C68.6 44.9 68.5 44.6 68.3 44.7C68.1 44.4 68.2 44.1 68.2 43.8C68.1 43.5 67.8 43.9 67.7 43.7C67.3 44 67.6 44.5 67.5 44.9C67.3 44.9 67.1 44.9 66.9 44.9L61.5 61.7H45.2C45.6 62 45.6 62.7 45.3 63C44.8 63.4 43.7 62.6 44 61.8C44.1 61.8 44.1 61.7 44.2 61.7H34L56.3 77.8L48.1 102.8C48.2 103 48.4 103.1 48.5 103.3L51.9 100.8C51.9 100.7 51.9 100.6 52 100.5C52.1 100.4 52.2 100.4 52.4 100.5L66.4 90.3C66.3 90.3 66.2 90.3 66.1 90.4C66.1 90.1 66.2 89.9 66.5 89.7C66.6 89.9 66.6 90 66.6 90.1L68.8 88.5H68.7C68.3 88.1 68.3 87.9 68.4 87.5C69.2 86.8 69.6 87.7 69.2 88.3L70.1 87.7L92.1 104L91.2 101.1H91.1C90.8 100.6 90.6 100.1 90.8 99.8L87.8 90.6C87.7 90.6 87.6 90.5 87.5 90.5C87.4 90.2 87.4 90 87.6 89.9L83.7 77.9L85.3 76.7C85.2 76.7 85.2 76.7 85.1 76.8C84.2 76.1 84.9 75.2 84.9 74.4C85.2 74.1 85.2 74.6 85.4 74.8C85.8 74.4 86.5 73.5 86.9 74.3C86.8 74.8 86.6 74.8 86 75.1C85.9 75.6 85.9 76.1 85.5 76.5L87.7 74.9C87.4 74.6 87.3 74 87.6 73.7C88.1 73.3 88.6 73.5 88.8 74.1L89.6 73.5C89.6 73.3 89.8 73.1 90.1 73C90.1 71.7 91.9 71.3 92.3 70.2C92.7 70.5 92.8 70.8 92.8 71.2L93.7 70.6C93.2 70.2 93.5 69.1 94.3 69.2C94.5 69.5 94.5 69.8 94.4 70.1L105.9 61.8L78.4 61.9L75 51.6C74.8 51.7 74.5 51.7 74.5 51.3C74.5 51.1 74.7 51 74.9 51L74.5 50C74.4 49.9 74.3 49.8 74.2 49.6C74.3 49.6 74.3 49.5 74.4 49.5L72.6 43.9L70.6 38C70.3 37.9 70 37.5 70 37.2C70.1 37.1 70.2 37.1 70.2 37L69.8 35.5ZM60.9 31.4C60.9 31.8 61 32.7 61.4 32.9C62.1 32.6 61.5 31.2 60.9 31.4ZM33.2 124.1C32.2 124.1 32.1 122.3 32.7 121.8C33.4 122.4 33 123.4 33.2 124.1ZM34.6 118.4C34.1 118.8 33.7 118.7 33.5 118.1C33.6 118 33.6 117.9 33.6 117.8C34.1 117.2 34.6 117.9 34.6 118.4ZM37.3 119.7C37.4 120.5 37.5 121.3 37.6 122.1C36.8 122.6 36.4 122.4 35.8 122.8C36.1 123.1 36.9 123.3 36.9 123.9C36.1 124 35.6 123.3 34.9 123.1C34.7 121.6 32.1 120.2 33.5 118.8C33.8 118.6 34 118.7 34.2 119.1C34.5 119.5 33.9 119.6 34 119.9C34.6 120.5 34.6 121.4 35.5 121.2C35.5 120.5 36.4 119.8 37.3 119.7ZM35.2 111.4C34.9 111.7 34.8 111.4 34.6 111.5C34.3 111 34.2 110.6 34.7 110.3C35 110.5 35.5 111.1 35.2 111.4ZM39.5 116.3C39.3 117.1 40.2 118.2 39 118.8C38.8 118.2 37.7 117.3 38 116.6C38.8 116.7 39.1 116.7 39.5 116.3ZM40.5 116.1C40.7 116.3 40.7 116.6 40.4 116.7C40.2 116.6 40.1 116.2 40.5 116.1ZM40.3 113.8C40.3 114 40.7 114.3 40.5 114.4C40.1 114.6 39.9 113.8 40.3 113.8ZM43.6 117.1C43.3 117.1 42.9 117.4 42.7 117.4C42.5 115.9 41.6 115.4 40.8 114.1C41 113.8 41.1 113.6 41.5 113.4C42.4 114.1 43.3 115.6 43.6 117.1ZM41.1 112C40.9 112.3 40.4 112.6 40.1 112.4C39.2 111.4 41.2 110.6 41.1 112ZM8.6 56.8C8.3 56.6 8.2 56.2 8.6 55.9C9 56 9.2 56.6 8.6 56.8ZM44.9 114.2C44.9 114.3 45 114.3 45 114.4C45.2 114.9 44.7 115.2 44.5 115.7C43.8 115.2 44.2 114.5 44.9 114.2ZM10.9 54.2C11.2 54.9 11.3 55.6 10.9 56.1C10.1 55.5 9.9 54.5 9 54.1C9.1 54 9.1 53.9 9.1 53.8C9.5 53.5 9.7 53.7 10 53.7C10.3 54 10.1 54.1 10.3 54.4C10.5 54.4 10.7 54.3 10.9 54.2ZM12.6 55.7C12.8 55.9 12.9 56.2 12.9 56.4C12.7 56.6 12.5 56.6 12.3 56.6C12.2 56.5 12.1 56.3 12.1 56.2C12.3 55.9 12.3 55.8 12.6 55.7ZM16.2 60.8C16.3 60.9 16.4 61.1 16.4 61.2C16.1 61.5 15.8 60.9 16.2 60.8ZM17.9 62.5C18 62.7 18.1 62.8 18.2 63C18.1 63.1 17.9 63.2 17.8 63.2C17.6 62.9 17.5 62.7 17.9 62.5ZM44.5 102.4C44.2 102.7 43.9 102.6 43.7 102.6C43.4 102.2 43.4 102 43.4 101.7C44.1 101 44.9 101.8 44.5 102.4ZM21.1 61.3C21.2 61.6 21.3 61.9 21 62.1C20.8 62.1 20.6 61.7 20.6 61.5C20.8 61.3 20.9 61.4 21.1 61.3ZM22.8 63.5C23 63.8 23 64.1 22.7 64.3C22.5 64.3 22.3 63.9 22.3 63.7C22.5 63.4 22.6 63.5 22.8 63.5ZM19.7 61.3C19 61.7 18.8 62.4 18 62.2C18.2 61.3 16.5 61 16.9 59.9C17.2 59.6 17.3 59.8 17.6 59.6C17.5 58.6 18.6 58.3 18.6 57.3C19 57 19.2 57.1 19.5 57.2C19.8 58.7 19.3 59.9 19.7 61.3ZM49.9 108.7C49.8 108.7 49.7 108.7 49.5 108.8C49.2 108.3 48.9 107.9 49.4 107.6C49.8 107.9 50.1 108.4 49.9 108.7ZM25.2 66.3C24.8 66.7 24.4 65.8 24.8 65.6C24.9 65.7 25.3 66.1 25.2 66.3ZM17.7 55.9C17.4 55.1 17.6 54.4 17.4 53.6C18.9 53.2 18.8 55.3 17.7 55.9ZM52.4 110.7C52.7 111.4 52.9 112 52.2 112.5C52.2 111.9 51.8 111.2 52.4 110.7ZM20.6 57.3C20.5 57.4 20.4 57.4 20.5 57.5C20.1 57.9 19.6 57.4 19.6 56.9C19.7 56.8 19.8 56.8 19.7 56.7C20.1 56.6 20.4 56.8 20.6 57.3ZM52.8 109.9C53.2 110 53.2 110.6 52.8 110.8C52.4 110.3 52.8 110.1 52.8 109.9ZM25.1 61C25.5 61.6 25.7 62.1 25.1 62.4C25 62.3 24.9 62.4 24.8 62.4C24.4 61.8 24.4 61.3 25.1 61ZM45.6 95.4C45.2 95.7 44.8 95.2 44.9 94.9C45.4 94.5 45.7 95 45.6 95.4ZM22.3 56C21.8 56.2 21.4 56.2 21.1 55.9C21.2 55.3 22.4 55.2 22.3 56ZM33.4 74.2C33.3 74.3 33.1 74.4 33 74.4C32.7 74.3 32.5 73.8 32.6 73.5C33 73.3 33.5 73.8 33.4 74.2ZM29.1 66.2C28.6 66.4 28.5 66.9 28.5 67.5C27.4 67.1 26.8 64.8 27.4 63.9C28.4 64 28.9 65.6 29.1 66.2ZM33.5 72.7C32.5 72.8 31.5 73.1 30.8 72.3C31.4 71.9 33.3 71.2 33.5 72.7ZM52.8 106.6C52.3 106.5 52.2 105.9 52.3 105.5C53 104.5 54.2 106.2 52.8 106.6ZM28.4 62.5C28.2 62.6 28.3 62.8 28.1 62.8C28 62.7 27.9 62.7 27.8 62.7C27.7 62.3 27.6 62 28 61.7C28.3 61.8 28.3 62.2 28.4 62.5ZM30.5 65.1C30 65 29.8 64.2 30.4 63.9C30.8 64.1 30.9 64.8 30.5 65.1ZM47.7 92.4C47.5 92.7 47.4 92.9 47 92.9C46.7 92.4 46.8 92.1 47.2 91.8C47.4 91.9 47.6 92.1 47.7 92.4ZM43.8 85.9C43.5 86.2 43.6 86.1 43.3 86.2C42.8 86 42.7 85.3 43.3 85.1C43.6 85.1 43.9 85.6 43.8 85.9ZM54.9 104.2C54.4 104 54.3 103.2 54.9 103C55.3 103.3 55.3 104 54.9 104.2ZM35.3 68.8C34.8 69.2 34.5 69 34.3 68.5C34.8 68.1 35.1 68.4 35.3 68.8ZM26.6 53.2C26.9 53.5 26.9 53.8 26.5 54C26.4 53.8 26.3 53.7 26.2 53.5C26.3 53.4 26.5 53.3 26.6 53.2ZM52 95.5C52.4 96.7 50.3 96.6 50.6 95.5C51.2 95.1 51.6 95.1 52 95.5ZM38.8 73.7C38.1 73.5 37.6 72.5 38.5 72.1C39.2 72.2 39.6 73.2 38.8 73.7ZM29.6 56.9C29 57.3 28.6 57.2 28.3 56.6C29 55.9 29.9 56.1 29.6 56.9ZM60.1 108.2C59.4 108.5 59.1 108.2 58.6 108.9C58.5 108.8 58.4 108.8 58.3 108.8C57.9 108.1 58.5 107.7 59 107.3C59 107 58.5 106.7 59 106.3C59.4 106.4 59.3 106.7 59.3 107C59.9 106.9 60.6 107.6 60.1 108.2ZM27.6 53C27.1 52.4 25.7 51.8 26.1 50.9C26.8 51 28.3 52.1 27.6 53ZM31 57.6C30.7 57.5 30.5 57 30.6 56.7C31.6 55.9 32 57.3 31 57.6ZM31.2 55.6C30.7 56.8 29.1 54.9 30.4 54.5C30.7 54.8 31 55.1 31.2 55.6ZM33.1 58C32.9 58.1 33 58.3 32.8 58.3C32.4 58.2 32.3 57.6 32.7 57.4C32.8 57.5 32.9 57.8 33.1 58ZM61.6 105.2C61.4 105.1 61 104.6 61.4 104.5C61.7 104.5 62.1 105 61.6 105.2ZM55.7 92.7C55.1 93 55.2 94.2 54.4 93.9C54.5 93.3 54.7 92.7 55.3 92.1C55.5 92.2 55.6 92.4 55.7 92.7ZM48.4 79.5C48.6 79.7 48.5 79.8 48.5 80C48.3 80.2 48.2 80.1 48 80.1C47.9 79.8 48.1 79.7 48.4 79.5ZM61.8 101.9C61 102.6 60.3 101.1 60.8 100.7C61.5 100.5 61.6 101.4 61.8 101.9ZM50.2 80.4C50.4 80.9 49.7 81.4 49.4 80.9C49.5 80.6 50 80.3 50.2 80.4ZM35.8 55.9C36 56.2 36 56.4 35.7 56.5C35.5 56.2 35.4 56 35.8 55.9ZM35.2 53.1C37.3 54.3 33.2 54.9 35.2 53.1V53.1ZM63.1 100.2C62.8 100.1 62.8 99.6 63.1 99.3C63.5 99.5 63.7 100 63.1 100.2ZM43.3 64.9C42.5 65.4 41.8 65.8 41.4 64.9C41.8 64.4 42.1 64.5 42.7 64C43.1 64.2 43.4 64.4 43.3 64.9ZM59.8 91.7C59.4 92.1 58.8 91.8 58.9 91.3C59.3 90.9 59.6 91.2 59.8 91.7ZM43.2 63.2C42.5 63.5 42.4 63.4 42 63.9C40.7 63.2 43 61.7 43.2 63.2ZM66.1 102.5C65.6 102.3 65.1 101.4 65.9 101C66.5 101.2 66.6 102.1 66.1 102.5ZM65.7 100.4C65.4 100.3 65.2 99.9 65.6 99.8C65.9 99.9 66.1 100.3 65.7 100.4ZM61.1 90.2C61.2 90.4 61.3 90.5 61.4 90.7C61.3 90.8 61.1 90.9 61 90.9C60.9 90.7 60.8 90.6 60.7 90.4C60.9 90.3 61 90.3 61.1 90.2ZM60.9 88.2C60.8 88.3 60.6 88.4 60.5 88.4C60.4 88.1 60.2 88.3 60.1 88C60.2 87.8 60.3 87.7 60.5 87.6C60.8 87.7 61 88 60.9 88.2ZM69.5 100.8C69.1 101.1 68.7 101 68.5 100.6C69 100.2 69.3 100.4 69.5 100.8ZM70.3 100.9C70 100.8 69.8 100.4 70.2 100.3C70.4 100.3 70.7 100.8 70.3 100.9ZM42.5 54.9C42 54.6 42.1 54 42.6 53.7C43.2 54 43 54.7 42.5 54.9ZM56.2 75.6C56.1 75.7 56 75.7 55.9 75.8C55.7 75.6 55.8 75.5 55.8 75.3C55.9 75.2 56.1 75.4 56.2 75.6ZM63.1 86.7C63.4 87.1 62.9 87.5 62.6 87.4C62.3 87.1 62.7 86.6 63.1 86.7ZM71 99.2C71.2 99.5 71.1 99.6 70.8 99.7C70.6 99.4 70.6 99.2 70.9 99.1C70.9 99.2 71 99.2 71 99.2ZM72.3 97.3C72.4 97.6 72.5 98 72.2 98.2C72 98.2 71.7 97.7 71.8 97.5C71.9 97.4 72.1 97.3 72.3 97.3ZM70.7 93.6C70.7 94.1 70.7 94.7 70.1 95.1C69.9 94.7 69.5 94.3 69.5 93.9C70 93.6 70.4 93.6 70.7 93.6ZM75.8 102.7C75.4 102.8 74.9 103.3 74.6 102.7C74.3 102.2 75.3 101.6 75.5 101.5C76 101.7 75.7 102.4 75.8 102.7ZM48.4 54.6C48.6 54.8 48.6 55 48.6 55.2C48.4 55.4 48.2 55.4 48 55.4C47.7 54.9 48 54.6 48.4 54.6ZM61.9 77.8C61.4 77.6 61.5 77 61.9 76.8C62.3 77 62.5 77.7 61.9 77.8ZM49.3 57.9C49.2 57.5 48.9 57.6 48.8 57.2C49.1 56.6 49.3 55.9 49.2 55.1C49.8 54.8 50.5 55 50.6 55.5C49.8 56.3 49.3 57.1 49.3 57.9ZM82.2 107.2C82 107 81.8 107.2 81.7 106.8C81.9 106.1 82.9 106.8 82.2 107.2ZM80.9 105.1C80.4 104.9 80.5 104.3 80.9 104.1C81.3 104.2 81.4 104.9 80.9 105.1ZM79.4 103.6C79 103.9 79.2 104.3 79.2 104.7C78.4 104.8 78.6 105 78 105.5C78 104.8 78.1 104.1 78 103.4C78.4 103.2 78.5 103 78.7 102.7C78.5 102.2 78.2 102.6 78 102.2C77.9 101.7 78.1 101.4 78.6 101C78.7 102.3 81 102.3 80.2 103.4C79.9 103.7 79.7 103.3 79.4 103.6ZM54.6 57.8C54.7 58.2 54.3 58.1 54.1 58.1C53.9 57.7 54.3 57.8 54.6 57.8ZM86.5 111.9C86.1 111.3 85.7 110.7 85.7 110.1C86.8 109.4 87.4 111.6 86.5 111.9ZM80.4 99.8C80.3 99.9 80.1 100 80 100C79.8 99.7 79.8 99.5 80.1 99.4C80.2 99.5 80.3 99.7 80.4 99.8ZM82.9 105.5C82.1 105 82.4 104.1 82.6 103.6C83.5 103.5 84 105.2 82.9 105.5ZM84.6 105.3C84.9 105.7 84.3 105.9 84 105.9C83.7 105.5 84.3 105.4 84.6 105.3ZM65.8 75.1C65.7 75 65.6 75.1 65.5 75.1C64.4 73.4 67.1 73.9 65.8 75.1ZM67.8 80C66.2 79.4 68.6 77.1 68.9 78.9C68.5 79.3 68.3 79.7 67.8 80ZM60.5 64.2C60.7 64.5 60.6 64.6 60.3 64.7C60.2 64.6 60.1 64.4 60.1 64.3C60.2 64.2 60.3 64.3 60.5 64.2ZM74.1 87.6C73.8 87.8 73.6 87.6 73.3 87.9C72.9 86.8 74.3 86.1 74.1 87.6ZM86.4 107C86.8 107.4 86.7 107.8 86.8 108.1C86.3 108.3 86.2 108.6 85.7 108.9C85.3 108.4 85.7 108 85.4 107.5C85.7 107.3 86.1 106.9 86.4 107ZM83.8 102.6C84.1 103 84.2 103.5 83.9 103.8C83.2 104.1 83.1 102.5 83.8 102.6ZM75.1 88.6C74.8 88.2 74.9 87.9 75 87.5C75.5 87.5 75.7 88.5 75.1 88.6ZM86.6 105.6C86.3 105.9 86.2 105.5 86 105.5C86 105.3 86 105 86.3 104.9C86.6 105 86.8 105.4 86.6 105.6ZM92.6 114.1C92.5 114.2 92.3 114.3 92.2 114.3C92 114 91.9 113.8 92.2 113.6C92.4 113.7 92.5 113.8 92.6 114.1ZM58.9 56.9C59.1 57.1 59 57.2 59 57.4C58.8 57.4 58.5 57.4 58.4 57.1C58.6 56.9 58.7 57 58.9 56.9ZM78.9 91.1C78.5 90.9 78.7 90.6 78.7 90.3C79 90.1 79.5 91 78.9 91.1ZM75.5 80.9C75.6 81.2 75.5 81.5 75.4 81.8C75.2 81.8 75.1 81.7 75 81.8C74.6 81.3 75.1 80.7 75.5 80.9ZM64.3 62.1C64.7 62.6 64.5 62.9 64 63.1C63.7 62.7 63.9 62.4 64.3 62.1ZM81.6 92.6C81.4 92.5 81.1 92.4 81 92C81.3 90.8 83.1 92 81.6 92.6ZM98.5 119C98.6 119.1 98.5 119.2 98.6 119.4C98 119.5 97.7 120.1 97.2 120.5C96.8 120.4 96.3 119.8 96.5 119.4C97.4 118.8 98 119.5 98.5 119ZM77.6 83.7C77.8 84.1 77.6 84.3 77.6 84.7C76.7 84.8 77.1 85.5 76.4 85.9C76 85.1 76.7 84.6 76.9 84C77.1 83.8 77.3 83.7 77.6 83.7ZM59.7 53C60 53.4 60.1 53.8 59.6 54C59.2 53.8 59.1 53.1 59.7 53ZM53.1 52.5C53.4 52.4 53.4 52.2 53.2 51.9C52.7 52 52.8 52.4 53.1 52.5ZM58 47.8C58 47.9 58.1 47.9 58.1 48C58 48 58 48.1 58.1 48.2C58 48.2 58 48.3 57.9 48.3C57.9 48.2 57.8 48.2 57.7 48.3C57.7 48.2 57.6 48.2 57.6 48.1C57.7 48.1 57.7 48 57.6 47.9C57.7 47.9 57.7 47.8 57.8 47.8C57.9 47.8 57.9 47.8 58 47.8ZM90.6 101.4C90.6 101.6 90.5 101.7 90.6 101.8C90.4 101.9 90.3 101.8 90.2 101.5C90.3 101.3 90.4 101.4 90.6 101.4ZM86.6 94.5C86.6 94.7 86.6 95 86.3 95.1C85.8 94.8 86.2 94.3 86.6 94.5ZM89.1 98.2C89 98.3 88.8 98.4 88.7 98.4C88.5 98.1 88.4 97.9 88.7 97.7C88.9 97.9 89 98 89.1 98.2ZM102.8 124.2C102 123.7 102 122.7 102.7 122.3C103.8 121.8 104.2 123.6 102.8 124.2ZM83.2 90.9C82.9 90.4 82.8 90 82.7 89.6C84.1 88.2 85 91.2 83.2 90.9ZM102 119.2C101.7 119.7 101.3 120.1 100.9 120.6C101.1 121.4 101.9 121.4 101.9 122.1C101 122.3 100.2 121.9 100 121.2C99.8 120.5 101.1 119.4 100.7 118.7C101.3 117.9 101.9 118.4 102 119.2ZM79.3 79.4C78.9 80.4 79.2 81.4 80.3 82.4C79.4 83 79.1 82.2 78.4 82.9C78 82.3 78.5 82 78.6 81.6C78.2 80.7 78.2 79.9 78.9 79.3C78.9 79.3 79.1 79.4 79.3 79.4ZM86.4 91.6C86.1 91.6 85.9 91.7 85.6 91.5C85.4 91 85.5 90.5 85.9 90.2C86.6 90.4 86.7 91.1 86.4 91.6ZM59.9 48.2C59.6 47.7 59.7 47.4 59.9 47.1C61 46.6 61 48.5 59.9 48.2ZM100.6 113.9C100.9 114.4 100.6 114.7 100.1 115C99.7 114.4 100.1 113.7 100.6 113.9ZM77.5 75.1C78.3 75.8 77.2 76.7 76.5 76.5C75.9 75.7 76.8 74.9 77.5 75.1ZM110.2 128.4C109.9 128.3 109.6 127.6 109.5 127.3C110.5 126.4 111.1 128.1 110.2 128.4ZM84.8 83.6C84.4 83.9 83.7 82.9 84.3 82.7C84.5 82.8 84.9 83.2 84.8 83.6ZM82.7 80.8C82.2 81 81.7 80.9 81.4 80.3C81.7 79.1 83.5 79.9 82.7 80.8ZM84.2 81.6C83.9 82.3 83.2 80.9 83.1 80.5C83.2 80.4 83.3 80.4 83.4 80.3C83.7 80.4 84.2 81.2 84.2 81.6ZM83.6 78.8C83.1 79 82.7 79.2 82.3 79.3C81.8 78.3 82 77.6 82.7 76.9C82.9 77.7 83.8 78.1 83.6 78.8ZM93.2 95.5C92.9 95.4 92.6 94.8 92.7 94.6C93.4 93.9 94.5 95.2 93.2 95.5ZM95.8 97.2C95.7 97.3 95.5 97.4 95.4 97.4C95 97.3 95 96.9 95 96.6C95.1 96.6 95.1 96.5 95.2 96.5C95.5 96.6 95.9 96.8 95.8 97.2ZM83 75C83.1 75.1 83.2 75.3 83.2 75.4C82.9 75.7 82.6 76 82.2 75.8C81.9 75.3 82.6 75 83 75ZM99.4 102.2C99.2 102.5 98.9 102.9 98.5 102.6C98.3 102 99.2 101.4 99.4 102.2ZM62.9 41.4C61.9 41.5 60.8 40.4 61.3 39.4C62 39.5 63.4 40.6 62.9 41.4ZM68.9 50.5C68.7 50.5 68.6 50.4 68.5 50.5C68.4 50.3 68.3 50 68.6 49.9C68.7 50 68.9 50.3 68.9 50.5ZM90 86.8C89.6 85.7 91.2 86.7 90 86.8V86.8ZM81.7 71.6C81.8 71.8 81.9 71.9 82 72.1C81.9 72.2 81.8 72.2 81.9 72.3C81.5 72.5 81.1 71.7 81.7 71.6ZM70.8 50.6C70.6 50.9 70.3 50.9 70 50.5C70 50.4 70.2 50.3 70.3 50.2C70.6 50.2 70.7 50.4 70.8 50.6ZM96.7 93.9C96.4 94.1 96.1 93.9 95.9 93.5C96 93.4 96.2 93.3 96.3 93.3C96.6 93.3 96.8 93.6 96.7 93.9ZM72.9 53.6C72.4 54 72.1 53.9 71.8 53.6C71.7 52.8 73.2 52.6 72.9 53.6ZM96.1 91.7C96.2 92.1 96.2 92.4 95.7 92.6C95.2 92.4 95.6 91.5 96.1 91.7ZM98.6 95.5C98.8 95.7 98.8 95.9 98.8 96.1C98.5 96.2 98.3 96.2 98.2 95.9C98.3 95.6 98.2 95.5 98.6 95.5ZM81 65.4C81.2 65.7 81 65.9 80.7 66C80.6 65.9 80.6 65.8 80.5 65.9C80.3 65.6 80.8 65.3 81 65.4ZM90.8 81.8C90.6 82 90.4 82 90.2 82C90 81.7 90 81.4 90.4 81.2C90.6 81.2 90.8 81.6 90.8 81.8ZM65.1 38.3C65 38.1 64.6 37.8 65 37.7C65.2 37.7 65.4 38.2 65.1 38.3ZM100.4 96.5C100.6 96.8 100.4 97 100.1 97.1C100 97 99.9 96.8 99.9 96.7C100 96.5 100.2 96.5 100.4 96.5ZM65.1 36.6C65.4 36.8 64.7 37.2 64.7 37C64.4 36.7 65 36.6 65.1 36.6ZM70.8 45.8C70.8 46 70.8 46.3 70.5 46.2C70.2 46 70.5 45.8 70.8 45.8ZM98.4 92.6C98.1 92.8 97.8 93.1 97.5 93C97.4 92.8 97.3 92.7 97.2 92.5C97.5 92.3 97.4 92 97.8 91.9C98.3 91.8 98.5 92.1 98.4 92.6ZM84.2 67.5C84.3 67.6 84.2 67.7 84.3 67.9C84.1 68.1 83.9 68 83.8 67.7C83.9 67.5 84 67.5 84.2 67.5ZM90.8 78.1C90.6 79.1 91.8 80 91 80.9C90.1 81.2 90.2 79.9 89.6 79.5C89.5 78.9 89.9 77.9 90.8 78.1ZM70.4 41.7C69.8 42.2 69.3 42.3 68.6 42.5C68.3 42.4 68.2 42 67.9 41.8C68.2 41.4 68.2 40.6 68.8 40.6C69.3 41.2 69.9 41.1 70.4 41.7ZM95.3 83.8C95.1 84.1 95 83.8 94.7 84C94.6 84.6 94.8 85.2 94.5 85.8C94.8 86.1 95.3 86.4 95.3 87C94.6 87.3 94.5 87.4 94 87.9C93.6 87.8 93.8 87.3 93.7 87C93.3 85.9 92 85.2 92.1 84.2C93.3 84 95.2 81.8 95.3 83.8ZM92.7 78.7C92.3 79.1 91.8 78.1 92.3 78C92.6 78.1 92.5 78.4 92.7 78.7ZM95.5 81.6C94.8 81.4 94.4 80 95 79.6C95.6 80 96 81.2 95.5 81.6ZM94.2 77.6C93.5 77.7 93.1 76.3 93.2 75.9C93.9 75.8 94.7 76.9 94.2 77.6ZM90.2 70.6C90.1 69.9 90.4 69.4 91 68.9C91.9 69.4 91 71 90.2 70.6ZM82.4 55.6C81.6 55.9 81.2 54.5 82 54.2C82.1 54.1 82.2 54.1 82.3 54.2C82.6 54.4 82.5 55.2 82.4 55.6ZM67.9 29.9C67.3 30.4 66.8 29.8 67.2 29.4C67.6 29.1 67.9 29.5 67.9 29.9ZM95.2 75.3C95.3 75.4 95.3 75.5 95.4 75.6C95.3 75.7 95.2 75.7 95.1 75.8C95 75.7 94.9 75.5 94.9 75.4C94.9 75.4 95.1 75.4 95.2 75.3ZM97.5 77.3C98.7 78.2 96.5 78.2 97.5 77.3V77.3ZM78.2 45.1C78 45.1 77.9 45.1 77.7 45.1C77.4 44.9 77.7 44.7 77.5 44.5C78 44.2 78.4 44.7 78.2 45.1ZM80.3 46.3C80 46.7 79.7 47.5 79 47.5C78.1 46.7 79.6 44.6 80.3 46.3ZM77 42.8C76.4 42.4 76.6 41.4 77 41C77.4 41.4 77.7 42.5 77 42.8ZM68.2 26C68.3 25.9 68.4 25.9 68.5 25.8C69.5 26.2 68.1 27 68.2 26ZM76 38.2C75.6 38.5 75 38.2 75 37.7C75.4 37.4 76 37.7 76 38.2ZM64.7 21.7C63.4 21.8 63.3 19.9 64.1 19.6C65.3 19.1 65.9 21 64.7 21.7ZM66.8 20.8C66.4 21.1 66 20.6 66.1 20.3C66.5 19.9 66.8 20.4 66.8 20.8ZM93.4 67.7C93.2 67.1 93.5 66.4 94.3 66.4C95 67.1 94.1 68.1 93.4 67.7ZM100.3 77.5C99.5 77.7 99.6 76.2 99.9 75.8C100.3 76.1 100.7 77.1 100.3 77.5ZM82.1 46.5C81.7 46.8 81.3 46.3 81.3 45.9C81.8 45.6 82.8 46 82.1 46.5ZM75.8 34.1C76 34.7 75.1 34.4 74.7 34.9C74.2 34.5 73.2 34 73.3 33.2C73.6 32.9 73.7 33.2 73.9 33.1C74.2 33.5 73.9 33.7 74.2 34.1C74.3 34.2 74.6 33.7 75 33.8C75.2 34.3 75.5 34.1 75.8 34.1ZM80.9 44.3C80.4 44.4 79.9 44.3 79.5 44C79.3 43.4 79.7 42.6 80.1 42.4C81.3 42 81 43.4 80.9 44.3ZM82.7 44.5C82.9 44.8 83 45 82.7 45.2C82.5 45 82.2 44.6 82.7 44.5ZM82.1 43.4C82.2 43.6 82.4 43.8 82.2 43.9C82 44.1 81.6 43.4 82.1 43.4ZM90.4 56.2C90.7 56.5 90.7 56.8 90.3 57C90.2 56.8 90.1 56.7 90 56.5C90.2 56.4 90.3 56.3 90.4 56.2ZM78.7 35.6C78.8 35.7 78.9 35.9 78.9 36C78.6 36.4 78.2 36 78.3 35.7C78.5 35.7 78.6 35.7 78.7 35.6ZM81.4 39.8C81.6 40.4 81.7 40.9 82 41.5C81.8 41.6 81.8 41.9 81.4 42C80.9 41.4 81.2 41 80.7 40.4C80.8 40.1 81.1 40 81.4 39.8ZM70.2 20.8C70.2 22 71.4 23.6 69.9 24.4C69.1 24.2 69.2 23.6 69.2 23C68.9 22.7 68.5 23 68.2 22.8C68 22.1 68.1 21.6 68.2 21C68.9 20.8 69.5 21.1 70.2 20.8ZM98 66.8C98.1 66.9 98.1 67 98.2 67.1C98.2 67.3 97.7 67.6 97.5 67.4C97.3 67 97.7 66.7 98 66.8ZM90.3 53.6C89.8 54 89.6 53.6 89.3 53.1C89.7 52.7 90.3 53 90.3 53.6ZM102.6 72.3C102.7 72.4 102.8 72.6 102.8 72.7C102.7 72.8 102.6 72.8 102.7 72.9C102.4 73.1 102.2 73 102 72.6C102.1 72.4 102.4 72.2 102.6 72.3ZM68.2 10.8C68.5 11.1 68.4 11 68.5 11.3C67.6 11.7 67.8 12.3 67.1 12.9C67.3 13.5 67.4 14.1 66.7 14.5C65.1 13.8 66.9 11.4 68.2 10.8ZM67.4 9.1C67.6 9.4 67.6 9.7 67.3 9.9C66.9 9.8 67 9.8 66.8 9.3C67 9.1 67.2 9.1 67.4 9.1ZM104.7 69.7C105 70.1 105.1 70.4 104.7 70.7C104.6 70.6 104.5 70.7 104.4 70.7C104.3 70.5 104.2 70.4 104.1 70.2C104.2 69.9 104.4 69.8 104.7 69.7ZM97.8 58.2C97.6 58.4 97.5 58.3 97.3 58.3C97.4 58.1 97.1 57.9 97.4 57.8C97.6 57.9 97.7 58 97.8 58.2ZM68.6 8.3C68 8.6 67.5 7.8 67.6 7.3C68.4 6.7 68.8 7.9 68.6 8.3ZM96 54.2C95.1 54.6 94.4 53.5 94.3 52.7C95.4 51.9 96.2 53.5 96 54.2ZM70.7 10.5C70.5 9.7 69.9 9.6 69.8 9C70.6 8.7 72.5 10.2 70.7 10.5ZM96.4 52C96.2 51.9 95.9 51.4 95.9 51.2C96 51.1 96.2 51 96.3 51C96.7 51.1 96.9 51.8 96.4 52ZM73.4 12.2C73.6 12.9 73.1 13.9 72.8 14.2C71.9 14.3 72.1 13.1 72.2 12.7C72.6 12.5 73 12.4 73.4 12.2ZM109.3 69C109.5 69.2 109.5 69.4 109.5 69.6C109.3 69.7 108.8 69 109.3 69ZM107.4 66.4C107.2 66.1 107 65.8 107.1 65.6C107.2 65.5 107.3 65.5 107.2 65.4C108 65.1 108.2 66.4 107.4 66.4ZM104.6 54.4C103.8 55.1 103.1 53.6 103.9 53.3C104.3 53.4 104.4 54.1 104.6 54.4ZM114.2 65.9C114.4 66.2 114.3 66.4 113.9 66.6C113.7 66.5 113.6 66.3 113.4 66C113.5 65.9 113.6 65.9 113.5 65.8C113.8 65.7 114 65.8 114.2 65.9ZM113.7 63.3C114 63.8 113.3 63.5 113.1 63.8C113.3 64.2 113.8 65 112.9 65.4C112.3 64.6 111.9 63.1 112.2 62.2C113 61.7 113.2 63.1 113.7 63.3ZM114.3 55.7C113.8 56 113.4 55.7 113 55.2C113.4 54.4 114.8 54.9 114.3 55.7ZM117.3 57.3C117.8 57.9 117.6 58.7 117.2 58.7C117.2 58.3 116.7 57.6 117.3 57.3ZM116.8 52.4C116.5 52.7 116.6 52.6 116.3 52.7C116.1 52.4 116.1 52.1 116.4 51.9C116.5 52 116.6 52.2 116.8 52.4ZM122.6 60.2C121.8 60.4 121.6 60.3 121.2 61C120.1 59.8 122.8 58.3 122.6 60.2ZM124.7 60.7C124.3 61 123.9 60.9 123.7 60.5C123.9 59.8 124.8 60 124.7 60.7ZM128.1 58.1C127.7 58.5 127.2 57.7 127.2 57.3C127.7 57 128.6 57.5 128.1 58.1ZM126.7 51.6C126.8 52.2 126.2 52.6 126.6 53.2C126.8 53.8 127.3 53.2 127.6 53.7C127.5 53.9 127.6 54.1 127.5 54.3C127.1 54.6 126.7 54.8 126.4 54.7C126 55 126.3 55.8 125.6 55.7C125.1 55.1 126.1 55 125.8 54.5C125.3 54.3 124.6 54.6 124.3 53.6C124.9 52.9 125.6 52 126.7 51.6ZM132.8 53.4C132.9 53.7 132.9 53.9 132.6 54.1C132.4 53.7 132.4 53.5 132.8 53.4ZM134.6 51.8C133.9 52.4 133.2 52.4 132.8 51.6C133 51.4 133.1 51.1 133.5 50.9C133.9 51.1 134.3 51.5 134.6 51.8ZM136 51.2C136 51.3 136.1 51.3 136.1 51.4C136 51.4 136 51.5 136.1 51.6C136 51.6 136 51.7 135.9 51.7C135.9 51.6 135.8 51.6 135.7 51.7C135.7 51.6 135.6 51.6 135.6 51.5C135.7 51.5 135.7 51.4 135.6 51.3C135.7 51.3 135.7 51.2 135.8 51.2C135.9 51.2 135.9 51.2 136 51.2ZM86.2 50.8H88.8C88.9 50.9 89 50.9 89.2 51C89.3 50.9 89.4 50.9 89.5 50.8L119.2 50.7C119.3 50.9 119.4 51.1 119.6 51.2C119.7 51.1 119.9 51 120 51C120 50.9 120 50.9 120 50.8H139.7L119.8 65.2H119.7C119.5 65.3 119.4 65.4 119.4 65.6L96.3 82L99.9 93.1C99.8 93.6 99.9 94.2 100.4 94.6L102.8 102.1C102.7 102 102.5 101.9 102.2 102.1C102.1 102.4 102.1 102.7 102.3 103C102.7 103.1 102.9 102.8 103 102.5L103.5 103.9C103.4 104 103.4 104 103.4 104.1C103.5 104.3 103.6 104.5 103.7 104.5L112.9 132.7L98.2 122C98.3 121.6 97.9 121.5 97.5 121.5L97.3 121.3C97.3 121.1 97.3 120.8 97 120.7L96.7 120.9L92.9 118.1C93.6 117.4 94.4 116.8 94.1 115.9C93.5 116 92.9 116 92.4 116.6C91.8 116.4 91.2 116.4 90.5 116.4L88.6 115C88.6 115 88.6 115 88.7 114.9C88.8 114.6 88.8 114.3 88.7 113.9C88.4 113.5 88 113.9 87.7 113.2C87.8 113.1 87.8 113 87.7 112.9C88 112.6 88.1 112.9 88.4 112.6C88.2 111.7 88.3 110.8 87.7 109.8C86.7 110.2 87.4 111.6 87.5 112.5C87.1 112.7 86.8 113 86.7 113.3L84 111.3C84 111.2 84 111.1 84.1 111C84.6 111 84.7 111.1 85 111.7C86 110.6 84.8 109.6 83.7 109.1C83.4 109.6 84 110.3 83.8 110.9C83.7 110.9 83.6 110.9 83.5 110.9L82.1 109.9C82.3 109.7 82.4 109.5 82.7 109.4C82.2 108.7 81.8 108.3 81.4 107.7C81 107.7 80.8 108.3 80.6 108.6C80.8 108.8 80.9 108.9 80.9 109.1L69.9 101.1L63.6 105.7C63.6 105.5 63.6 105.3 63.4 105.1C62.8 105 62.6 105.8 62.9 106.2L48.6 116.6C48.7 116.3 48.8 116 49 115.7C50.3 115 50.5 114 51.2 113.1C51 112.4 50.3 112 49.9 111.1C49.6 110.3 49.8 108.7 48.6 109.1C48.2 109.4 48.9 110.1 48.9 110.5C48.2 109.8 47.5 108.9 46.7 108.5L47.8 107.7C47.9 107.8 48 108 48.1 108.1C48.4 107.9 48.5 107.6 48.4 107.3L50.3 105.9C50.5 105.9 50.7 105.8 50.9 106C51.4 107.2 50 107.9 50.7 109.2C50.8 109.2 50.9 109.2 51 109.3C51.7 109.1 51.5 108 51.7 107.5C51.9 107 52.3 106.9 52.2 106.4C52 105.9 51.5 105.7 51 105.4L61 98.1C61.1 98.1 61.2 98.1 61.3 98.1C61.3 98 61.3 98 61.3 97.9L66.9 93.8C66.9 93.9 67 94 67 94.1C67.4 94.2 67.8 93.7 67.5 93.3L69.8 91.6L86.3 103.7C86.1 103.9 86.1 104.2 86.2 104.5C86.5 104.7 86.9 104.7 87.4 104.5L98.4 112.5L87.4 78.9L98.7 70.8C98.9 71.1 99 71.3 99.2 71.5C99.3 71.3 99.5 70.8 99.5 70.3L116.1 58.3L80.8 58.4L80 55.8C80.3 55.7 80.2 55.4 80 55.1C79.9 55.1 79.9 55.1 79.8 55.2L77.7 48.7C77.9 48.7 78.1 48.6 78.4 48.5C78.5 48.3 78.6 48.1 78.6 47.8C78.2 47.6 77.9 48 77.6 48.3L75.3 41.1C75.5 41.1 75.7 40.9 75.6 40.7C75.5 40.7 75.3 40.6 75.2 40.7L74.7 39.1C75 39.1 75.2 39.1 75.4 39.2C74.8 38.5 74.9 37.7 74.4 37.3C74.3 37.4 74.3 37.5 74.2 37.6L72.2 31.5C72.5 31.4 72.8 31.2 73.1 31.2C73.2 30.6 72.4 30.8 72.3 30C72.1 30 71.9 30 71.8 30.1L70.8 26.9C71.1 27.1 71.4 27.2 71.7 27.1C71.9 26.5 71.2 25.5 70.5 25.9L70.1 24.7L64 43.7L59.5 57.7C59.4 57.7 59.4 57.8 59.4 57.9V58L59 58.5H45.9C46.2 58.3 46.2 58 46 57.7C45.8 57.7 45.6 57.7 45.4 57.9C45.4 58.1 45.4 58.4 45.5 58.5H23.7L42 71.7C41.6 71.7 41.3 72.2 41.7 72.6C41.8 72.6 41.9 72.5 42 72.6C42.2 72.4 42.4 72.1 42.2 71.8L52.2 79.1L44.2 103.5C43.7 104 43.2 104.6 42.9 105C42.6 104.3 42.1 104.4 41.7 104.2C41.2 104.4 41.6 104.9 41 105.1C40.6 104.8 40.2 104.5 39.8 104.2C39 104.8 39.6 106.5 40.5 107C41.6 106.2 42.4 106.5 43.3 106.8L41.4 112.7L43.2 111.4C43.3 111.8 43.5 112.1 44.1 112.5C44.4 112.5 44.9 112 45.2 112.3C44.4 113.3 46.5 114.2 46.2 115.3C45.8 115.5 45.7 115.7 45.5 116C45.4 117.3 46.4 117.4 47.2 118.1L39.7 123.6C39.6 123.5 39.6 123.4 39.5 123.4C39.1 123.9 38.7 124.4 37.8 124.8C37.5 124.7 37.3 124.2 36.9 124.5C36.5 124.8 36.6 125.3 36.8 125.7L36.1 126.2C36 125.1 34.7 125.1 34.1 126C34.5 126.8 35.1 126.7 35.7 126.5L26.8 133L29.2 125.7C29.2 125.8 29.2 125.9 29.2 126C29.1 126.7 28.5 127.5 28.9 128.3C29.6 129.5 31.4 129 32.1 128.1C32 127.6 31.6 128.1 31.4 127.7C31.4 127.2 31.4 126.6 31.5 126.1C31 124.9 30.1 125.4 29.4 125.1L31.5 118.7C31.6 118.7 31.7 118.6 31.7 118.6C31.7 118.5 31.6 118.5 31.6 118.5L32.3 116.3C32.5 116.2 32.8 116.1 32.9 115.9C32.8 115.8 32.7 115.6 32.6 115.5L35.3 107.3C35.4 107.4 35.4 107.4 35.5 107.5C35.7 107.6 36.1 107.2 36.3 107.3C36.2 107.5 36.5 107.9 36.7 108.2C37.1 108.2 37.5 107.9 37.7 107.6C37 107 36.8 105.3 36.2 104.6L43.3 82L38 78.2L38.1 78.1C38 78 37.9 77.8 37.9 77.7C37.8 77.7 37.7 77.8 37.6 77.9L29.4 72C29.5 72 29.6 72 29.7 71.9C29.8 71.5 29.3 71.3 29 71.6C29 71.6 29 71.7 29.1 71.7L28.4 71.2C29.5 70.6 28.5 69.6 27.9 69C28.1 68.3 27.5 66.9 26.6 66.9C26.4 67.7 25.9 68.4 25.3 69C25.3 68.7 25.3 68.4 25.1 68.1C24.7 67.9 24.3 68 24 68.1L19.9 65.1C20.5 64.2 19.9 62.5 18.4 63.3C18.4 63.5 18.3 63.7 18.3 63.9L14.7 61.3C14.9 61.2 14.8 61 14.8 60.8C14.6 60.8 14.5 60.8 14.3 60.9L14.4 61.1L13 60.1C13 59.8 13.2 59.6 13.5 59.3C13.4 58.6 12.7 57.8 12.1 57.8C11.7 58.1 11.7 58.7 11.9 59.3L10.5 58.3C10.7 58.2 11 58.1 11.2 58C10.7 57 10.5 55.8 9.1 56.6C9 56.8 9.2 57.2 9.3 57.5L7.4 56.2C7.5 55.9 7.5 55.6 7.2 55.3C6.8 55.3 6.6 55.4 6.4 55.5L5 54.5C4.9 54.2 4.7 53.8 5 53.6C5.4 53.4 5.5 54.1 5.7 54.4C6.2 53.7 6.6 54 7.1 53.6C7 53.5 7.1 53.4 7 53.2C6.6 53 6.2 53.6 6 53.5C5.5 53.2 5.2 52.1 4.5 52.4C4.3 52.7 4.6 53 4.2 53.3C4 53.2 3.7 53.2 3.4 53.3L0 50.7H10.4C10.6 51.4 10.6 52.1 10.6 52.7C10.8 52.9 11 52.9 11.2 53C11.6 52.7 11.9 52.4 12 52.1C11.6 51.8 11.5 51.1 11.4 50.6H14.9C14.8 51.5 15.4 52.5 15.2 53.4C14.4 53.6 14.1 52.3 13.4 52.3C12.7 52.6 13.5 53.4 13.4 53.8C12.9 54.3 12.3 53.8 12.1 54.4C12.6 55.3 13.4 54.9 14 55.2C14.2 55.7 13.4 56 13.7 56.6C14.3 56.9 14.8 57.6 15.5 57.6C15.8 57.3 15.3 56.8 15.6 56.4C16.4 56.3 16.8 55.6 17.3 55C16.8 54.1 16.7 53.5 15.9 53.2C15.6 52.2 15.7 51.4 16 50.6H19.5C19.8 51.8 20.7 52.8 22.2 52.3C23.1 53.3 22.3 54.2 23.4 54.9C23.2 54.8 22.6 55.1 22.6 55.4C22.7 55.9 22.8 56.2 23.2 56.6C24.2 56.5 24.1 55.6 23.7 54.9C24.1 54.1 24.7 53.3 24.5 52.3C23.9 51.9 23.1 51.9 22.5 51.4C22.5 51.2 22.4 50.9 22.5 50.7C22.6 50.7 22.7 50.6 22.8 50.5H24.1C24 50.9 24.2 51.4 24.6 51.6C24.9 51.4 24.8 50.8 24.6 50.5H32.7C32.9 50.8 33.3 51.1 33.5 51.2C33.9 51 33.7 50.7 33.7 50.5H34.1C34.2 50.9 34.1 51.4 34.6 51.7C35 51.3 35.5 51.2 35.8 50.9C36.1 51 36 50.9 36 50.8H45.8C45.9 51.1 46.1 51.5 46.4 51.9C47.2 51.4 47.8 52.2 48.5 52C48.5 51.6 48.6 51.2 48.8 50.8H53.4L56.3 41.7C56.6 41.6 56.8 41.3 56.5 41L65.2 14.1C65.5 14 65.6 13.6 65.9 13.4C65.8 13.2 65.7 13.1 65.6 13L69.8 0L82.2 38.4L82.1 38.3C81.4 38.6 81.6 39 81.4 39.4C81.7 39.9 82.2 39.7 82.4 40.4C82.5 40.3 82.6 40.2 82.7 40.1L82.9 40.8L82.6 41C82.2 41.7 83.1 42.8 83.7 43.2L85.4 48.6C84.9 48.2 84.3 48.7 83.7 48.9C83.8 49.5 83.3 50.2 84 50.6C85.2 50.2 84.8 49.3 85.5 49L86.2 50.8Z" fill="white"/>
</g>
<defs>
<clipPath id="clip0_185_2">
<rect width="139.6" height="132.8" fill="white"/>
</clipPath>
</defs>
</svg>
