<svg width="36" height="64" viewBox="0 0 36 64" fill="none" xmlns="http://www.w3.org/2000/svg">
<path d="M35.1477 24.0642H36L35.9729 22.1094L31.0485 19.38H30.8861V3.46477C30.8861 3.28035 30.7914 3.13282 30.6697 3.09593C30.9132 2.85619 31.0755 2.5058 31.0755 2.08164C31.0755 1.38085 30.6156 0.809158 30.0609 0.809158C29.4927 0.809158 29.0462 1.38085 29.0462 2.08164C29.0462 2.5058 29.2086 2.87463 29.4656 3.09593C29.3844 3.13282 29.3303 3.20658 29.3033 3.29879H6.50733C6.48027 3.13282 6.38557 3.00373 6.26381 3.00373C6.53439 2.78242 6.69673 2.39515 6.69673 1.97099C6.69673 1.28864 6.23675 0.716949 5.68207 0.716949C5.11387 0.716949 4.66742 1.28864 4.66742 1.98943C4.66742 2.43203 4.85682 2.81931 5.1274 3.04061C5.03269 3.07749 4.96505 3.18814 4.95152 3.31724H4.72153V16.3924H4.95152V18.7899L0.0270575 21.5192L0 23.4741H0.86584V32.3077L0.054115 33.1929V36.9919H0.906426C1.02818 37.2132 1.16347 37.3976 1.28523 37.5451L12.257 49.3663L10.8095 50.8969C10.4442 51.2842 10.4307 51.9297 10.7824 52.3538L11.0124 52.612C11.3641 53.0177 11.9459 53.0362 12.2976 52.6305L13.7587 50.9891L16.3833 53.8107L9.51071 61.1505C9.14543 61.5378 9.10485 62.2386 9.41601 62.6997L9.63247 63.0132C9.94363 63.4742 10.4983 63.5295 10.8501 63.1238L17.8174 55.323L24.8117 62.8656C25.177 63.2529 25.6776 63.1423 25.9346 62.6259L26.1105 62.2755C26.3675 61.7591 26.2728 61.0215 25.9076 60.6342L19.2244 53.7554L21.8354 50.8232L23.4724 52.6673C23.8241 53.0731 24.4059 53.0546 24.7576 52.6489L24.9876 52.3907C25.3393 51.985 25.3258 51.3211 24.9605 50.9338L23.2965 49.1819L34.5389 36.5861L35.7835 36.5677V32.7687L35.1342 32.0495V24.0642H35.1477ZM34.2683 31.1458L30.9132 27.4944H30.8997V21.6483L33.9572 24.0458V24.0642H33.9842H34.2683V31.1458ZM29.5738 30.15L29.7091 30.3528L29.5738 30.15ZM6.50733 16.3924H29.2627V29.7443L6.5885 29.9471L6.54791 27.937H6.50733V19.9517L6.56144 19.9148L6.53439 18.8267H6.50733V16.3924ZM24.2841 36.6968L17.8715 43.4649L11.6347 36.8812L24.2841 36.6968ZM1.75874 23.4925H2.01578H2.04284V23.4741L4.93799 21.1873V27.8816L1.75874 31.3487V23.4925ZM2.90868 36.9919L9.42954 36.8997L16.5321 44.8849L13.5964 47.9831L2.90868 36.9919ZM17.8038 52.3354L15.0846 49.5322L17.8715 46.3971L20.5366 49.4032L17.8038 52.3354ZM19.2244 44.8849L26.5434 36.6599L32.5366 36.5677L21.9977 47.8172L19.2244 44.8849Z" fill="black"/>
</svg>
