<svg xmlns="http://www.w3.org/2000/svg" viewBox="0 0 807.94 432.92"><defs><style>.cls-1{fill:#1a1a1a;}</style></defs><title>Varlık 1</title><g id="katman_2" data-name="katman 2"><g id="Object"><polygon class="cls-1" points="514.54 272.96 514.54 272.96 514.54 272.96 514.54 272.96"/><path class="cls-1" d="M228.77,190.94c-.49,11.84-20.64,3.05-15.62-.72-11.4-.4-22.86-.15-34.24.42-1.68,1.57-16.43,7.58-15.67,1q-7.19.58-14.36,1.38-4.35,3.84-8.95,1.11c-29.59,4-66.23,11.55-82.45,39.7a.73.73,0,0,1-.3.54c-4.17,7.38-25.27,85-13.88,86.52.5.07,1.24-11.49,1.3-12.21a194.88,194.88,0,0,0,1,32.12c1.83-.28,6.26.69,5.63,3.55q-2.07,2.13-5.13.27c6.12,41.54,29.13,67.1,71.46,67.26,43.76-1.63,90.35-1.87,132.45-15.17a8.35,8.35,0,0,1-2.7-2.23l-2.28.68c.72-.26,1.45-.55,2.17-.82-7-9.42,10.36-2.8,9.16-3.65a143.53,143.53,0,0,0,14.76-7.32,91.55,91.55,0,0,1-14.25,7.71,2.89,2.89,0,0,1,1.14,2.66c27.36-11.94,50.66-38.5,61.23-66.38a13,13,0,0,1-3.38.17,86.45,86.45,0,0,1-6.08,12.32c2.1-4,4.08-8.08,5.89-12.33a7.36,7.36,0,0,1-5-2q3.94-4.5,9.79-1.55c9.23-27.15,14.48-67.21,4.56-94.51C311.91,193.43,261.06,192.92,228.77,190.94ZM44.36,298.35l.33-.4.46.37Zm137.78,8.58-1.13.74-.53-.9Zm-3.9,46.15c2.43-3.85,9.82-.34,7.86,1.75C183.59,357.51,174.66,358.75,178.24,353.08ZM165.33,217.29c.51-.16,5.6.48,3.21,1.23C167.56,218.83,159.65,219.1,165.33,217.29Zm-2.18,19.41c.73,0,.86.2.37.61C162.78,237.31,162.66,237.11,163.15,236.7Zm-10.69-15a2.51,2.51,0,0,1,1.65-.57C159.72,222.6,150.53,225.08,152.46,221.65Zm-6.12,32.13c-1.18.69,18.41-1.44,15.4-3C177.26,258.67,136.64,259.53,146.34,253.78Zm-33.45-49.72c2.11,0,3.21.88,3.32,2.59l-4.35-.46C111.71,205.39,110.92,204.38,112.89,204.06Zm-9.24,15.71c-1.58-.76-22.4,70.73-21.46,70.91-4-.76.81-15,1.31-17.07C84.9,267.45,93.75,215,103.65,219.77ZM63.93,232.72l.26-.6h0C64.12,232.33,64,232.52,63.93,232.72Zm11.83,16.47a6.32,6.32,0,0,0-1.17.75c0,1.94-1.82,8.6-2.59,10l.31,0c2.23,1.56,3,3.31,2,5.29l-7.93-.86a8.67,8.67,0,0,0-1.81-4.82l3.43-.06c1-2.15,1.2-5.75,2.53-7.55a1.38,1.38,0,0,0-.2,0c-3.22-4.34-3.44-5.27,1.78-6.46,6.63-18.62,14-17,4.22.26C77.61,246.87,78.22,248,75.76,249.19ZM96.11,407A41.45,41.45,0,0,1,77.3,399c8.27,4.39,18.16,7.28,28.76,9.09A74.65,74.65,0,0,1,96.11,407Zm18.71-107.3.28-1,1.27.67ZM116,244.94c-2.68,6.34-33.35,93.32-34.1,93-3.72-1.4,27.14-88.81,29.76-95.52a11.08,11.08,0,0,1-8.19-.53q3.6-3.63,9.28-2.47c.46-1.49.87-3,1.43-4.46q-3.87-1.37,1.11-3.16c1.08-3.16,9-18.64,12-17.28C128.79,215.24,116.92,242.73,116,244.94Zm17.15,44.18c4.89.61,9.41,5,14.82,3.82,2.28-.48,7.11-8.92,7.39-8.9,4.91.41,14.44-.37,10.38,10.36C157.27,316.74,115.24,286.87,133.14,289.12Zm26.16,69.49-.15.09q-4.4.48-3.21-2.62A4.27,4.27,0,0,1,159.3,358.61Zm-7.5,2.67q3.7-5.19,6.69.22C157.49,365,150.84,365.5,151.8,361.28Zm3.89,31.5c3.18-7.16,20.43,4.94,26.89-3.34q5-2.82,7.56,1.46C192.4,402.68,153.72,397.25,155.69,392.78ZM198,243.1a3.3,3.3,0,0,1-1,0C196.42,241.61,198.39,242.91,198,243.1Zm.27-21q-3.35-.24-4.28-2.9a7.61,7.61,0,0,1,6.3.36Zm10,42h0c0,1.55,0,3.11,0,4.67a5.73,5.73,0,0,1-5-2.64A6.87,6.87,0,0,1,208.24,264Zm-6,16.73h0q4-.9,3.69,2.18-3,.92-3.69-2.17h0ZM202.09,369c6.58-4.13,7.17-1.81,9.38,1.3C207.66,374,203,368.5,202.09,369ZM213,247.49c-.95.27-1.11,0-.48-.74C213.28,246.75,213.44,247,213,247.49Zm14.35-31.4c.48.13.91.32,1.36.49h0l-1.1.69C226.64,216.82,226.55,216.42,227.35,216.09ZM215.29,348.4q1.94-4.51,7.11-3.62C236.73,346.45,215.68,358.62,215.29,348.4Zm12.31-44.79-1.29-.48,1.48-.3Zm8.8,14.55-4-2.07C232.51,311.25,245.24,317.42,236.4,318.16ZM242,359.07l.29-1,1.33.7Zm-13.24-65.38c-4.87-3.87,14.17-10.27,13.32-10.08C253.29,281.1,238.47,301.49,228.71,293.69Zm23.19-74.85a3.13,3.13,0,0,1,.94,0C253.72,220.18,250.93,219.31,251.9,218.84Zm14.79-2.64c1.37-.15,2.78-.24,3.54.77C269.38,221.53,260.39,216.88,266.69,216.2Zm25.6,109.61-1.43-.57,1.67-.3ZM287,216h0a23.56,23.56,0,0,1,2.14-1.16,3.53,3.53,0,0,1,3.66,1.07C289.21,217.79,290.27,217.58,287,216Zm10.56,20.55-3.18-2.5c.6-1.24,2-2.08,4.16-1.69Q302.83,235.69,297.6,236.58Zm13.65,54.36q.79-4.33,5.4-5c2.06-.38,4.25-.09,5.11,1.75C321.71,292.1,310.88,293,311.25,290.94Zm8-65.82c.11.23.23.46.34.7,2.75,6.2,4,13.17,4.55,19.9A201.45,201.45,0,0,0,319.22,225.12Z"/><path class="cls-1" d="M761.75,292.77c-.6-6.12-1.37-12-2.38-17.75C760.17,280.73,761,286.88,761.75,292.77Z"/><path class="cls-1" d="M741.61,330.71c-6.52,3.91-5.54,3.67-2.24,2.3A7.75,7.75,0,0,1,741.61,330.71Z"/><path class="cls-1" d="M704.33,304.17c.07.08.14.17.22.25C704.73,304.06,704.63,304,704.33,304.17Z"/><path class="cls-1" d="M730.22,209.73a19.39,19.39,0,0,0-3.41.68,19.39,19.39,0,0,1,3.41-.68c-42.8-24.36-106.54-23.19-153.73-19.13-29.86,2.57-61.07,6.14-85.18,25.05-24.4,72.2-.59,164.87,82.51,183.26-1.48-1-.57-2,2.71-2.84,2.39.87,5.14,3.44,0,3.51a232.69,232.69,0,0,0,25.92,5.33c.68-.33,32.4-7.57,31.11-2.58-1.49,5.89-18.87,2.8-18.63,2.81a6.51,6.51,0,0,0,.11,1.66c34,4.69,96.55,14.74,123.43-11.09,24.88-23.9,26.42-64.49,23.86-96.5-.17-2.18-.37-4.32-.58-6.44-.75-5.89-1.58-12-2.38-17.75-5.76-32.26-19.52-57.38-57-70.75,27.12,7.61,43.54,20.23,53,47.42.81,2.32,2.34,12,4,23.33,1,5.7,1.78,11.63,2.38,17.75,1.93,14.9,3.43,28.09,3.16,28,6.35,1.55-5.74-74.27-8.23-80.18C751,227,743.12,217.08,730.22,209.73ZM505.46,323.64c-1.95.08-3.94-.14-5.91-.23q4.11,2.79,2.47,6.36c-4.12,1.77-8.64-2.7-8.58-6.15,0-.17,12.58-3.38,13.95-2.53Q509.51,323.05,505.46,323.64Zm.19-65.37a3.49,3.49,0,0,1,.42.61,2.44,2.44,0,0,1-1.37,1.6c-.84,2-8.76,28.86-11.95,27.48-3.48-1.5,7.93-25.67,8.84-27.52-2.82-1.2-.24-3.37,1.34-3.36,5.15-12.71,6.39-32.35,17.5-41.84-13.61-8.75,14.56-11.53,20.63,3.24-4.88,2.56-12.51.47-17.37-1.54-4,9.66-8.76,19.11-12.78,28.89C509.21,250.1,506.89,253.81,505.65,258.27Zm22.43-4.65c12.34,1.1,4.53,19.27-7.52,12.33-.39,4.19-2.28,7.35-5.84,7l-.12.08a.35.35,0,0,0,.14.13.38.38,0,0,1-.15-.13l-.05,0a77.36,77.36,0,0,1,3.2-9.87c-1.49-2.71,1.07-6.94,3.33-8.3.86-3.44,6.44-32.18,14.44-28.54,1.75.8-10.6,26.17-11.21,27.37A13.59,13.59,0,0,1,528.08,253.62ZM514.76,273.2h0s.06,0,0,0Zm2.62,78a3.2,3.2,0,0,1-3.85-1.51c.56-1.9,4.86-2.8,5.85-.74A2.19,2.19,0,0,1,517.38,351.18Zm6-26.93a5.17,5.17,0,0,1-4,.3c-.55,1.21-1.82,5.44-3.62,4.66-2.34-1,36.5-114.08,45.14-110,1.67.78-3.61,11.5-4.54,12.9-16.83,25.41-26.25,61.95-36.31,90.75A5.33,5.33,0,0,1,523.41,324.25Zm39.34-70.72-1.26-.66,1.53-.31Zm11.51,40.79c-.22.43-1.82.61-2.78.91q-3.36-2.14.33-3.51C574.05,292.13,574.84,293.14,574.26,294.32Zm-1.42-58.08c-1,.59-20.06-.42-15.13-5.73,3.27-3.54,15.29.79,16.91,4.21A21.05,21.05,0,0,1,572.84,236.24Zm20.39,26c-2.11.73-3.44.15-4-1.75C590.94,254.67,601,261,593.23,262.21ZM613.9,346.5c-1.95.08-3.94-.14-5.91-.24q4.11,2.81,2.46,6.37c-4.11,1.77-8.63-2.71-8.58-6.15,0-.17,12.58-3.38,14-2.54Q617.94,345.92,613.9,346.5Zm44,4.18q-2.24,2.43-4.87-.08Q655.19,348.13,657.85,350.68Zm-3.64-18.37c.11,2.78-4.7-2.22-4.91-4.3l4.35,1.28A19,19,0,0,1,654.21,332.31Zm-6.81-66.17a3.52,3.52,0,0,1,3.66,1.06c-3.63,1.86-2.57,1.65-5.8.1A21.32,21.32,0,0,1,647.4,266.14Zm-3.53,13.39q2-1.68,3.61,1C647,280.81,642.85,282.27,643.87,279.53Zm3.29,86.52a3.67,3.67,0,0,1,1.94,2.84C645.28,368.09,645.23,368,647.16,366.05Zm6.24-6.33c-1.59,1.85-7,.5-7.89-.82C643.26,355.54,655.15,357.65,653.4,359.72ZM663.86,408a15.18,15.18,0,0,1-8.79-1.45q-.81-3.42,3.72-2.82a12.58,12.58,0,0,1,8.12,3.22A10.34,10.34,0,0,1,663.86,408Zm1.5-185.81a3.67,3.67,0,0,1,1.94,2.85C663.48,224.27,663.42,224.19,665.36,222.23Zm6.24-6.33c-1.59,1.85-7,.5-7.89-.82C661.46,211.7,673.35,213.84,671.6,215.9Zm2.59-7.88c-6.64.26.07-4.85,1.86-1.16C676.05,207.6,675.3,208,674.19,208ZM731.74,363.7c-1.59,1.86-7,.51-7.89-.81C721.61,359.51,733.49,361.65,731.74,363.7Zm4.35,17.61q1.86-1.85,4,.59Q738.22,383.82,736.09,381.31Zm16.14-51.51a28.12,28.12,0,0,1-9.81,5.7c-2.69-.36-3.7-1.19-3-2.49-3.3,1.37-4.28,1.61,2.24-2.3a7.75,7.75,0,0,0-2.24,2.3C744.48,330.9,755.12,326.11,752.23,329.8Zm-14.11-89.64a12.28,12.28,0,0,1-4.12,6,12.28,12.28,0,0,0,4.12-6,23.51,23.51,0,0,1-11.73-2.11ZM721.68,273c3.84-.91,8.25-1,12.42-1.46v0h0v0h-.07C730.2,289.32,703.76,277.25,721.68,273Zm-19.15,29.35a12.14,12.14,0,0,1,1.8,1.86c.3-.16.4-.11.22.25-.08-.08-.15-.17-.22-.25-1.55.81-8.51,7.07-10.32,3.58C692.5,304.83,700.55,300.83,702.53,302.31Z"/><path class="cls-1" d="M27.49,311.72c-2.19-.64-2.16-1.51.07-2.6.16-5.83.56-11.57,1.18-17.37a3.19,3.19,0,0,1-.33-.31c-1.17-.29-2.05-.51-2.7-.73-2.88,26.87-3.16,55.47,4.37,81.66a5.71,5.71,0,0,1,3.81.38C27.86,353,27,332.24,27.49,311.72Z"/><path class="cls-1" d="M39.81,162.45C36.39,168.27,4.31,220,7.52,221.93c2.8,1.67,29.1-43.7,32.62-49.73a3,3,0,0,1-.29-3.24A14.45,14.45,0,0,0,39.81,162.45Z"/><path class="cls-1" d="M352.7,254.19c-10.85,13.08-9.8,37.19-13.77,53-4.24,16.85-9.78,33.56-18.8,48.53-17.74,29.46-46.43,43.18-78.29,53-59.11,18.18-181.22,45.76-207-33.05a5.81,5.81,0,0,1-3.33,1.16c.25.76.47,1.52.73,2.27a92.3,92.3,0,0,0,9.26,19.21q7.95-.25,4.46,6.07c39.33,47.51,141.72,24.49,190,10.87,31.79-9,63.31-21.13,83.23-48.81,10.68-14.85,17.54-32.09,22.62-49.54,4.76-16.31,4-45.17,14.71-58.86A5,5,0,0,1,352.7,254.19Z"/><path class="cls-1" d="M358.24,248.91a6.39,6.39,0,0,1,4.2,3.54c24.91-17.33,65.46-14,86.55,7.71,8.68,9,28.26,80.2,31.75,80.11,1.85,0-20.17-74.31-27.74-82.57C430.37,233,385.25,228.56,358.24,248.91Z"/><path class="cls-1" d="M43.27,161.61c.21-.43,1.32-.89,1.59-1.32C44.58,160.72,43.48,161.18,43.27,161.61Z"/><path class="cls-1" d="M41.25,160c.79-.24,2-.49,3.62-.85a.67.67,0,0,1,0,1.1c.11.72.23,1.44.34,2.16l.4.2c5.78-9.85,12.22-19.42,18.47-29-3.59-2.39-.59-5,3.2-4.86,15.31-23.16,31.75-46,49.19-67.6-3.26-1.57.74-2.31,1-2.39a4.43,4.43,0,0,1,.74.28c9.52-10.88,17.72-22.16,26.18-33.9a21.54,21.54,0,0,1-4.45.84C108.66,72,70.13,112.11,41.25,160Z"/><path class="cls-1" d="M663.67,29.72a2.45,2.45,0,0,0,0-.27l-.36-.15Z"/><path class="cls-1" d="M11.57,271.1a17.15,17.15,0,0,0,2.43.67C13.19,271.56,12.37,271.34,11.57,271.1Z"/><path class="cls-1" d="M185.77,44.8A34,34,0,0,1,197,42.87c-.6-5-1-10-2-15,6.28-33.27-29.36-34.8-45.36-14.95a24.16,24.16,0,0,1,2.13,2.81c10.44-12.58,28.31-21.51,37.67-2.5-11.87-15.75-26.89,4-34.39,13.15-.17-.15-23.88,28.41-23.92,28.46,2.87.28-.32,1.68-1.46,1.83-12.63,17.29-26.5,33.57-39,51q-13.38,18.67-26.38,37.65c-4.69,6.88-12,24-19,29-1.68,2.67-3.33,5.36-5.13,7.95,1.35-.21,2.89-.23,4.26-.41.25-.78.49-1.57.74-2.35q5.85,3.6-.39,9c-2.53-1.21-5.55-.07-8.23-.6l-.09-.35c-6.33,8.9-14.06,20.09-17.73,30.32C3.25,221.16-5.11,254.34,3.38,266.16c1.94,2.69,5,4,8.19,4.94a10.36,10.36,0,0,1-4.77-3.45c-4.37-5.62-.66-29,1.63-33.85,5.23-11-.15-6.87,11.59-13.26,14.31-7.78,30.65-12.77,45.4-21.08,2.39,1.44,24.46-11.06,27-11.89,16.11-5.31,33-7.64,49.85-9.19-3.12-.47-6.29-1-9.87-1.61.32-.24.63-.44.95-.65-21,2.42-41.82,6.78-60.87,16.31,25.19-32.7,46.38-70.66,66.8-106.55a36,36,0,0,0-5.61-5,30.07,30.07,0,0,1,8.08.66C148.85,69,155.28,55.46,164.65,44.4a4.3,4.3,0,0,1-1-.56l1.46,0a76.39,76.39,0,0,0,5.11-7.76c2.33,6.82,1.85,49.31,11.13,48.52a2.86,2.86,0,0,1,.81-1.51c6.94-2.27,16.8,4.53,16.83-10,.34.31-.52-20.1-1-23.36C192.48,49.37,187.92,48.16,185.77,44.8ZM26.39,211.92l4.1-2.34,2.16.33a2.8,2.8,0,0,1,.81.75C31.39,211.64,29.58,213.12,26.39,211.92ZM126.84,75.07c-.74,0-.86-.2-.38-.61C127.2,74.46,127.32,74.66,126.84,75.07Zm18.69-11.88c1.51-.07,2.6.35,2.84,1.32C146.5,65.78,143.32,63.29,145.53,63.19Zm35.28,17.52c-4.07-11.45,1.29-41.78-7.6-48.37.8-.74,1.58-1.41,2.27-2s1.2-1,1.67-1.4a10.17,10.17,0,0,1,2.41-.24c4.93,16.63,5.07,34.77,7.12,51.68C184.86,79.68,182.63,80.54,180.81,80.71Zm9.85-26.86c.48.13.92.32,1.37.49h0l-1.1.7C190,54.58,189.86,54.18,190.66,53.85Zm3.76,22.26c-.85,2.54-2.61,3.65-3.93,5.66.09.17.17.33.27.5a.72.72,0,0,1-.55-.46l4.54-6.73C194.64,75.41,194.54,75.76,194.42,76.11Zm3.27-5.38.13-.21c0,.08.05.16.07.23Z"/><path class="cls-1" d="M26,282.41a7,7,0,0,1,2.3-.92c0,1.62,0,3.23.05,4.84a6,6,0,0,1,.77.49c.66-16.09-7.67-13.58-15.13-15.05C20.06,273.34,26,274.64,26,282.41Z"/><path class="cls-1" d="M621.06,6.21a10.39,10.39,0,0,1,2.62,3c13.82-15.35,31.76,10.52,38.94,19.21a10.18,10.18,0,0,1,1.07-.49,4.71,4.71,0,0,0,.27-.71,1.86,1.86,0,0,1,1.25-.61C656.25,15.38,636.92-10.95,621.06,6.21Z"/><path class="cls-1" d="M144,20.2c.14,1.61.29,3.22.44,4.84q2.46-3.39,5.13-6.62L144.19,20Z"/><path class="cls-1" d="M786.45,218.27c1.09.27,2.18.52,3.28.77-1.1-.46-2.26-.9-3.46-1.32Z"/><path class="cls-1" d="M440.62,208.47l1.79-.8C441.27,208.07,440.63,208.34,440.62,208.47Z"/><path class="cls-1" d="M771.91,229.71c.57-.73-1.83-3.13-5.81-6.34C769.14,227.18,771.62,230.09,771.91,229.71Z"/><path class="cls-1" d="M260.87,175.54l-1.5-.42.05.41,1.14.14Z"/><path class="cls-1" d="M797.58,220.7c-4.08-18.15-15.24-36.39-25-52.13-3.31,1.51-5.92-2.75-1.32-2.08C739.94,118,702.17,75.83,667.74,29.86c-.23,1.28-.18,1.23-2.26,1.31a1,1,0,0,1-.27.44c1.25,1.63,4.77,1,5.84,2.9l-1.12.77c0,1.15-.9,1.27-.95,0L667.81,35c5.71,7.44,11.41,14.91,17.39,22.13,2.13-.24,5.22,1.12,3,3.6A1000.16,1000.16,0,0,1,763,163.18a1.31,1.31,0,0,1,1.84.89l-1.15.19c11.68,18.09,20.62,37.52,31.69,56-1.88-.35-3.75-.75-5.61-1.17,3.73,1.55,6.84,3.33,8.79,5.52,4.56,5.14,8,37.54,4,42.31-4.78,5.55-15.17.76-20.5,8.56-6,8.75.58,41.12.39,51.56-1,54-21,91.94-77.61,98.34-51.8,5.84-109.84-3.73-158-23.6a1.2,1.2,0,0,1,0,.19,6.82,6.82,0,0,1-8-.08c-.88-1.84-.39-2.81,1.49-2.91-15.06-6.75-30-15.52-40.79-28.29-3.7-4.37-16-31.09-16.5-31.08-4.32-.05,18,38.62,19,39.68,19.49,20.49,48.48,31,75.18,38.39,48.2,13.37,108.29,22.57,157.11,6.62-.18-1.24,1-1.15,1.83-1.42a4.29,4.29,0,0,1,1,.43c20.93-7.62,34.19-23,41.37-43.93l-.9.12.9-.12c7.68-22.42,8.53-46.62,7.39-70.09-.43-9.08-5.68-27.75,1-34.8,5.79-6.18,14.77-.19,19.58-8.72C810.54,258.37,805.88,222.92,797.58,220.7Z"/><path class="cls-1" d="M783.52,216.83l.45.81.13,0C783.9,217.4,783.71,217.12,783.52,216.83Z"/><path class="cls-1" d="M688.55,182.31c20.61,3.54,40.48,9.68,58.58,20C731.23,191,710.47,185.2,688.55,182.31Z"/><path class="cls-1" d="M763.94,174.54c-25.44-38-53.15-74.19-78.51-112.13-2.53.94-5.61-1.59-3.08-4C680,55.54,665.9,35.8,664.43,37.14c-1.09,1,4.57,8.55,4.82,8.9.65-.1,1.33-.17,2-.25l-.87,1.51h-.22c4.93,6.81,10.35,13.23,15.09,20.21-10.76-12.8-21.54-25.71-32.5-38.33.37,1.24.57,3.79-1.66,3.5-1.84-.24-1.61-4.83.07-5.29-5.36-6-15.16-21.19-25.83-16.19a9.34,9.34,0,0,1,2,4.16l-4.44,0-1.65-1a19.13,19.13,0,0,0-1.71,2.23,19.42,19.42,0,0,1,1-2.52l-4.12,0a24.51,24.51,0,0,0-1.13,12.16c-4,15-4.59,30.92-8.15,45.89-2.08-1.71-2,1.88-1.84,2.67h0c2.29,4.36,4.42,14.62,11.25,13.68,19,19.46,12.66-53.87,16-58.92,21.76,28.53,36.53,62.2,57,91.73,4.61-2.81,10.26,4.16,4.54,5.82,16.37,21.78,27.7,50.16,47.9,68.83-45.84-24.92-107-22.39-157.79-20.62C536,177,493,189.81,447.83,205.54c-19.62-4.11-41.32.9-61.29-.84-19.24-1.68-37.11-8.13-55.38-13.88a394.93,394.93,0,0,0-70.6-15.15l-1.08.46-.06-.6c-37-4.45-74.44-4.08-112.42-.79,1.42.82,2,1.85,1.67,3.08,53.05-4.27,105.54-3.32,157.39,9.84,48.33,12.26,87.71,24.21,138.68,19l-2.33,1c10.11-3.57,60.22-16.95,64.85-18.09,25.69-6.35,51.91-9.49,78.31-10.56,33.26-1.33,69.11-2.53,103,3.29,21.92,2.89,42.68,8.65,58.58,20,1.32.76,2.63,1.52,3.93,2.31.4.59.83,1.16,1.27,1.71-1.66-1.42-3.41-2.74-5.2-4-18.1-10.29-38-16.43-58.58-20-29.5-3.89-61.09-2.61-85.74-2.76-30-.19-61,2.11-89.83,10.72-5.11,1.52-63.91,29.66-52.37,35.77-7.91-4.23,65.4-34.13,69.91-35.14,42.56-9.53,93.65-11.48,137-6,0-.24,0-.47-.06-.7,18.67,5.5,38.43,4.65,57,11.74,4.73,1.8,30,18.07,41.64,27.44-4.82-6.05-11-14.37-12.11-15.51.65.15.81-.24.47-1.16,7.44,4.68,21.22,7.26,31.81,11-4.19-13.87-12.59-28.1-20.42-40.25C763.43,177.33,757.35,174.9,763.94,174.54ZM618.07,84.1c.25-1.07.55-3.16.85-5.74a19.23,19.23,0,0,1,.08,2.72A3.55,3.55,0,0,1,618.07,84.1Zm3,1.47c6.64-9.64-6.17-52.38,7-56.08-4,9,.92,19.5.21,28.86C628.08,66.07,630.72,83.4,621.1,85.57Zm22.08-53.14c-.5-.71-.48-1.1.49-.94C644.24,32.24,644.35,32,643.18,32.43ZM692,102.64c-1.41.4-2.15,0-2.52-.76C689.82,97.15,694.35,101,692,102.64Zm40.16,46.74h0c0-.48-.08-1-.12-1.44C732.78,148.41,733.91,148.86,732.2,149.38Zm-4.88-21.26c-5.4-4,1.58-2.69,1.91-1.77ZM733.53,183c-5.4-4,1.58-2.69,1.92-1.76Zm9.39-30.58c-.19-.06-.23-.29-.33-.45.55-.34.92-.24,1.12.31A2.31,2.31,0,0,1,742.92,152.41ZM614.08,180.9l1.12-.74.54.9ZM762.56,183a3.66,3.66,0,0,1,2,2.84C760.69,185.08,760.63,185,762.56,183Z"/><path class="cls-1" d="M15.82,236.49c1,6.29,21,2.19,23.69,2a8.75,8.75,0,0,0-.38,1.23c-3.05,10.52-23.32-1.79-24.51,3.94-.19.89,32.7,11.88,27.71-9.06C42,234.6,15.32,233.41,15.82,236.49Z"/><path class="cls-1" d="M767.94,242c1.69-6.78,20.87-.09,21.28-3,1-7.09-25.24-8.69-25.23,3.28,0,9.46,29.12,5.25,29,2C792.82,238.66,766.91,250.1,767.94,242Z"/><path class="cls-1" d="M111,414.88c-2.19-2.45-23.11-2.27-28.15-4-12.6-4.23-21.76-10.76-29.65-21.26-11.91-15.84-17-34.94-18.85-54.63-.35-3.69.15-41.78-.39-41.84-3.18-.37-4.29,13.8-4.68,16.18a1.3,1.3,0,0,1,.49.72,1.35,1.35,0,0,1-.87,1.34c-5.43,28.62,6.44,64.87,26.67,85.65,3.74,3.85,54.54,34.93,55.57,18.27C110.85,415.31,110.8,415.16,111,414.88Z"/><path class="cls-1" d="M776.74,297.14c-6.49-.82-13.52,68.78-13.77,70.14-2.3,12.55-4.13,24.48-15,32.86-3.32,2.56-30.23,9.93-30.2,11.13.18,5.84,29.05-6,30.9-7.48l-5.28.73,5.29-.74a31.56,31.56,0,0,0,3.55-3.09C762.31,389.47,783.29,297.92,776.74,297.14Z"/><path class="cls-1" d="M354.22,219.25c-.29.43-.57.87-.86,1.31a8.37,8.37,0,0,1-.48-1,4.35,4.35,0,0,0-4.07,1.73c.92,5.89,60.59-1,64.47-1.4,5.32-.76,45.78,8.45,46.76,5.2C462.56,216.76,361.54,217.33,354.22,219.25Z"/><path class="cls-1" d="M465.85,236.53c.25-1.35,0-8.95-1.57-8.91-12.89.31,11.76,78.14,16.59,76.38C479.82,304.39,464.85,241.92,465.85,236.53Z"/><path class="cls-1" d="M348.55,224.55c-6-.39-11.34,56.31-12.06,56,4.33,1.89,12-43.22,12.06-46.45C348.59,232.49,351.12,224.71,348.55,224.55Z"/><path class="cls-1" d="M338,215.55c-.71-1-1-1.45.73-1.51l0,.05c-27.58-36.32-88.2-30.6-127.34-32.15-29.69-1.18-60.25-.92-89.71,3.6-17.6,2.7-36.63,7.24-52.12,16.5-3.49,2.08-31.26,23.27-25.11,27.62-1.88-1.34,28.65-25.31,31.17-26.67,19-10.16,41.5-14.62,62.71-16.52,25.85-2.32,62.45-7.54,87.05,0,25.5,7.89,55,1.08,80.83,11,4.18,1.6,40.53,25.62,38.29,27.1,1.17-.76-4.68-9-5.12-9.58C339.49,215.49,339,215.69,338,215.55Z"/></g></g></svg>