<svg width="33" height="21" viewBox="0 0 33 21" fill="none" xmlns="http://www.w3.org/2000/svg">
<path d="M10.1676 0.00512695C11.1224 0.00512695 11.9893 0.0873187 12.774 0.257182C13.5586 0.427045 14.2335 0.701017 14.7932 1.08458C15.3529 1.46814 15.7864 1.97773 16.0992 2.61335C16.4064 3.24896 16.5601 4.03252 16.5601 4.96403C16.5601 5.97225 16.3296 6.81061 15.8742 7.48458C15.4133 8.15855 14.7384 8.7065 13.8385 9.13937C15.0731 9.49554 15.9949 10.1147 16.604 11.0024C17.213 11.8901 17.5148 12.9586 17.5148 14.2079C17.5148 15.2161 17.3173 16.0873 16.9277 16.827C16.5326 17.5668 16.0059 18.1695 15.3419 18.6353C14.678 19.101 13.9208 19.4462 13.0703 19.6709C12.2198 19.8955 11.3473 20.0051 10.4474 20.0051H0.740753V0.00512695H10.1676ZM9.60791 8.10376C10.3926 8.10376 11.04 7.91746 11.5449 7.54485C12.0497 7.17225 12.3021 6.56403 12.3021 5.72567C12.3021 5.25992 12.2198 4.87636 12.0497 4.57499C11.8796 4.27362 11.6546 4.04348 11.3748 3.87362C11.0949 3.70376 10.7712 3.58869 10.409 3.52293C10.0469 3.45718 9.66827 3.4243 9.2732 3.4243H5.1469V8.10376H9.60791ZM9.86032 16.5914C10.2883 16.5914 10.6998 16.5476 11.0949 16.4654C11.49 16.3832 11.8357 16.2407 12.132 16.0435C12.4283 15.8462 12.6697 15.5832 12.8453 15.2435C13.0209 14.9092 13.1142 14.4764 13.1142 13.9558C13.1142 12.9312 12.8234 12.1969 12.2472 11.7586C11.6656 11.3202 10.9029 11.101 9.94811 11.101H5.1469V16.5914H9.86032Z" fill="url(#paint0_linear_125_41)"/>
<path d="M10.1676 0.00512695C11.1224 0.00512695 11.9893 0.0873187 12.774 0.257182C13.5586 0.427045 14.2335 0.701017 14.7932 1.08458C15.3529 1.46814 15.7864 1.97773 16.0992 2.61335C16.4064 3.24896 16.5601 4.03252 16.5601 4.96403C16.5601 5.97225 16.3296 6.81061 15.8742 7.48458C15.4133 8.15855 14.7384 8.7065 13.8385 9.13937C15.0731 9.49554 15.9949 10.1147 16.604 11.0024C17.213 11.8901 17.5148 12.9586 17.5148 14.2079C17.5148 15.2161 17.3173 16.0873 16.9277 16.827C16.5326 17.5668 16.0059 18.1695 15.3419 18.6353C14.678 19.101 13.9208 19.4462 13.0703 19.6709C12.2198 19.8955 11.3473 20.0051 10.4474 20.0051H0.740753V0.00512695H10.1676ZM9.60791 8.10376C10.3926 8.10376 11.04 7.91746 11.5449 7.54485C12.0497 7.17225 12.3021 6.56403 12.3021 5.72567C12.3021 5.25992 12.2198 4.87636 12.0497 4.57499C11.8796 4.27362 11.6546 4.04348 11.3748 3.87362C11.0949 3.70376 10.7712 3.58869 10.409 3.52293C10.0469 3.45718 9.66827 3.4243 9.2732 3.4243H5.1469V8.10376H9.60791ZM9.86032 16.5914C10.2883 16.5914 10.6998 16.5476 11.0949 16.4654C11.49 16.3832 11.8357 16.2407 12.132 16.0435C12.4283 15.8462 12.6697 15.5832 12.8453 15.2435C13.0209 14.9092 13.1142 14.4764 13.1142 13.9558C13.1142 12.9312 12.8234 12.1969 12.2472 11.7586C11.6656 11.3202 10.9029 11.101 9.94811 11.101H5.1469V16.5914H9.86032Z" fill="black" fill-opacity="0.2"/>
<path d="M23.0568 16.1695C23.6549 16.7503 24.5164 17.0353 25.6357 17.0353C26.4423 17.0353 27.1337 16.8325 27.7099 16.4325C28.2915 16.0325 28.6427 15.6051 28.7744 15.1558H32.2806C31.7209 16.8928 30.8595 18.1366 29.7017 18.8818C28.5439 19.627 27.1392 20.0051 25.4931 20.0051C24.3518 20.0051 23.3257 19.8243 22.4093 19.4572C21.493 19.0955 20.7138 18.575 20.0828 17.901C19.4463 17.227 18.9579 16.427 18.6123 15.4901C18.2666 14.5586 18.091 13.5284 18.091 12.4106C18.091 11.3257 18.2666 10.3175 18.6232 9.38595C18.9799 8.45444 19.4847 7.64348 20.1377 6.96403C20.7906 6.28458 21.5753 5.74759 22.4807 5.35307C23.386 4.95855 24.3957 4.76677 25.4986 4.76677C26.7332 4.76677 27.8086 5.00239 28.725 5.4791C29.6413 5.95581 30.3931 6.59691 30.9857 7.39691C31.5728 8.20239 32.0008 9.11746 32.2642 10.1421C32.5275 11.1723 32.6208 12.2407 32.544 13.364H22.0801C22.135 14.6572 22.4587 15.5887 23.0568 16.1695ZM27.5617 8.54759C27.0843 8.02705 26.36 7.76403 25.3888 7.76403C24.7523 7.76403 24.2256 7.87362 23.803 8.08732C23.3805 8.30102 23.0458 8.56951 22.7934 8.88732C22.541 9.20513 22.3654 9.53937 22.2612 9.89554C22.1569 10.2517 22.0966 10.5695 22.0801 10.849H28.5604C28.3683 9.83526 28.0391 9.07362 27.5617 8.54759Z" fill="url(#paint1_linear_125_41)"/>
<path d="M23.0568 16.1695C23.6549 16.7503 24.5164 17.0353 25.6357 17.0353C26.4423 17.0353 27.1337 16.8325 27.7099 16.4325C28.2915 16.0325 28.6427 15.6051 28.7744 15.1558H32.2806C31.7209 16.8928 30.8595 18.1366 29.7017 18.8818C28.5439 19.627 27.1392 20.0051 25.4931 20.0051C24.3518 20.0051 23.3257 19.8243 22.4093 19.4572C21.493 19.0955 20.7138 18.575 20.0828 17.901C19.4463 17.227 18.9579 16.427 18.6123 15.4901C18.2666 14.5586 18.091 13.5284 18.091 12.4106C18.091 11.3257 18.2666 10.3175 18.6232 9.38595C18.9799 8.45444 19.4847 7.64348 20.1377 6.96403C20.7906 6.28458 21.5753 5.74759 22.4807 5.35307C23.386 4.95855 24.3957 4.76677 25.4986 4.76677C26.7332 4.76677 27.8086 5.00239 28.725 5.4791C29.6413 5.95581 30.3931 6.59691 30.9857 7.39691C31.5728 8.20239 32.0008 9.11746 32.2642 10.1421C32.5275 11.1723 32.6208 12.2407 32.544 13.364H22.0801C22.135 14.6572 22.4587 15.5887 23.0568 16.1695ZM27.5617 8.54759C27.0843 8.02705 26.36 7.76403 25.3888 7.76403C24.7523 7.76403 24.2256 7.87362 23.803 8.08732C23.3805 8.30102 23.0458 8.56951 22.7934 8.88732C22.541 9.20513 22.3654 9.53937 22.2612 9.89554C22.1569 10.2517 22.0966 10.5695 22.0801 10.849H28.5604C28.3683 9.83526 28.0391 9.07362 27.5617 8.54759Z" fill="black" fill-opacity="0.2"/>
<path d="M29.4987 1.01883H21.3997V3.25992H29.4987V1.01883Z" fill="url(#paint2_linear_125_41)"/>
<path d="M29.4987 1.01883H21.3997V3.25992H29.4987V1.01883Z" fill="black" fill-opacity="0.2"/>
<defs>
<linearGradient id="paint0_linear_125_41" x1="16.1064" y1="20.0307" x2="16.1067" y2="0.00512649" gradientUnits="userSpaceOnUse">
<stop stop-color="#937D52"/>
<stop offset="0.489583" stop-color="#D1C4AA"/>
<stop offset="1" stop-color="#937D52"/>
</linearGradient>
<linearGradient id="paint1_linear_125_41" x1="16.1064" y1="20.0307" x2="16.1067" y2="0.00512649" gradientUnits="userSpaceOnUse">
<stop stop-color="#937D52"/>
<stop offset="0.489583" stop-color="#D1C4AA"/>
<stop offset="1" stop-color="#937D52"/>
</linearGradient>
<linearGradient id="paint2_linear_125_41" x1="16.1064" y1="20.0307" x2="16.1067" y2="0.00512649" gradientUnits="userSpaceOnUse">
<stop stop-color="#937D52"/>
<stop offset="0.489583" stop-color="#D1C4AA"/>
<stop offset="1" stop-color="#937D52"/>
</linearGradient>
</defs>
</svg>
