<svg width="21" height="21" viewBox="0 0 21 21" fill="none" xmlns="http://www.w3.org/2000/svg">
<path d="M10.3705 0.00512695C4.64377 0.00512695 0 4.59552 0 10.2583C0 14.7884 2.97145 18.6317 7.09196 19.9875C7.61024 20.0824 7.80052 19.7651 7.80052 19.4943C7.80052 19.2498 7.7909 18.4421 7.78644 17.5853C4.90136 18.2056 4.29258 16.3756 4.29258 16.3756C3.82083 15.1905 3.14112 14.8753 3.14112 14.8753C2.20021 14.239 3.21205 14.2521 3.21205 14.2521C4.25342 14.3244 4.80176 15.3086 4.80176 15.3086C5.7267 16.8761 7.2278 16.423 7.81958 16.161C7.91266 15.4983 8.18142 15.046 8.478 14.7899C6.17457 14.5307 3.75317 13.6515 3.75317 9.72279C3.75317 8.60337 4.15828 7.68872 4.82168 6.97069C4.714 6.71244 4.35904 5.6696 4.92214 4.2573C4.92214 4.2573 5.79299 3.98174 7.77476 5.30829C8.60198 5.08112 9.48914 4.96719 10.3705 4.96328C11.2518 4.96719 12.1396 5.08112 12.9684 5.30829C14.9478 3.98174 15.8174 4.2573 15.8174 4.2573C16.3819 5.6696 16.0268 6.71244 15.9191 6.97069C16.584 7.68872 16.9864 8.60337 16.9864 9.72279C16.9864 13.6609 14.5603 14.528 12.2511 14.7818C12.6231 15.1 12.9545 15.724 12.9545 16.6805C12.9545 18.0524 12.9425 19.1566 12.9425 19.4943C12.9425 19.7671 13.1291 20.0868 13.6548 19.9861C17.7731 18.6289 20.7408 14.7869 20.7408 10.2583C20.7408 4.59552 16.0977 0.00512695 10.3705 0.00512695ZM3.88408 14.611C3.86124 14.6619 3.78018 14.6772 3.70634 14.6422C3.63112 14.6088 3.58887 14.5393 3.61326 14.4882C3.63558 14.4358 3.71681 14.4212 3.79186 14.4563C3.86725 14.4898 3.91018 14.5599 3.88408 14.611ZM4.39419 15.061C4.34473 15.1063 4.24805 15.0853 4.18244 15.0136C4.11461 14.9422 4.1019 14.8466 4.15205 14.8005C4.20305 14.7552 4.29682 14.7764 4.36482 14.8479C4.43266 14.9202 4.44588 15.0152 4.39419 15.061ZM4.74414 15.6368C4.6806 15.6804 4.57671 15.6395 4.51248 15.5483C4.44894 15.4572 4.44894 15.3478 4.51385 15.304C4.57825 15.2602 4.6806 15.2996 4.74569 15.3901C4.80906 15.4828 4.80906 15.5921 4.74414 15.6368ZM5.33599 16.3036C5.27915 16.3656 5.15808 16.349 5.06947 16.2644C4.9788 16.1817 4.95355 16.0644 5.01057 16.0024C5.0681 15.9403 5.18985 15.9578 5.27915 16.0416C5.36914 16.1242 5.39662 16.2423 5.33599 16.3036ZM6.1009 16.5287C6.07583 16.6091 5.95923 16.6456 5.84176 16.6114C5.72447 16.5763 5.64771 16.4822 5.67141 16.4011C5.69579 16.3202 5.81291 16.2822 5.93123 16.3187C6.04835 16.3537 6.12529 16.4471 6.1009 16.5287ZM6.9714 16.6242C6.97432 16.7088 6.87472 16.7789 6.75142 16.7804C6.62743 16.7832 6.52714 16.7147 6.52576 16.6315C6.52576 16.5461 6.62313 16.4767 6.74712 16.4746C6.87043 16.4723 6.9714 16.5402 6.9714 16.6242ZM7.82657 16.5918C7.84134 16.6743 7.75565 16.7591 7.6332 16.7816C7.51282 16.8034 7.40137 16.7524 7.38608 16.6706C7.37114 16.586 7.45838 16.5013 7.57859 16.4794C7.70121 16.4584 7.81094 16.5079 7.82657 16.5918Z" fill="url(#paint0_linear_125_7)"/>
<path d="M10.3705 0.00512695C4.64377 0.00512695 0 4.59552 0 10.2583C0 14.7884 2.97145 18.6317 7.09196 19.9875C7.61024 20.0824 7.80052 19.7651 7.80052 19.4943C7.80052 19.2498 7.7909 18.4421 7.78644 17.5853C4.90136 18.2056 4.29258 16.3756 4.29258 16.3756C3.82083 15.1905 3.14112 14.8753 3.14112 14.8753C2.20021 14.239 3.21205 14.2521 3.21205 14.2521C4.25342 14.3244 4.80176 15.3086 4.80176 15.3086C5.7267 16.8761 7.2278 16.423 7.81958 16.161C7.91266 15.4983 8.18142 15.046 8.478 14.7899C6.17457 14.5307 3.75317 13.6515 3.75317 9.72279C3.75317 8.60337 4.15828 7.68872 4.82168 6.97069C4.714 6.71244 4.35904 5.6696 4.92214 4.2573C4.92214 4.2573 5.79299 3.98174 7.77476 5.30829C8.60198 5.08112 9.48914 4.96719 10.3705 4.96328C11.2518 4.96719 12.1396 5.08112 12.9684 5.30829C14.9478 3.98174 15.8174 4.2573 15.8174 4.2573C16.3819 5.6696 16.0268 6.71244 15.9191 6.97069C16.584 7.68872 16.9864 8.60337 16.9864 9.72279C16.9864 13.6609 14.5603 14.528 12.2511 14.7818C12.6231 15.1 12.9545 15.724 12.9545 16.6805C12.9545 18.0524 12.9425 19.1566 12.9425 19.4943C12.9425 19.7671 13.1291 20.0868 13.6548 19.9861C17.7731 18.6289 20.7408 14.7869 20.7408 10.2583C20.7408 4.59552 16.0977 0.00512695 10.3705 0.00512695ZM3.88408 14.611C3.86124 14.6619 3.78018 14.6772 3.70634 14.6422C3.63112 14.6088 3.58887 14.5393 3.61326 14.4882C3.63558 14.4358 3.71681 14.4212 3.79186 14.4563C3.86725 14.4898 3.91018 14.5599 3.88408 14.611ZM4.39419 15.061C4.34473 15.1063 4.24805 15.0853 4.18244 15.0136C4.11461 14.9422 4.1019 14.8466 4.15205 14.8005C4.20305 14.7552 4.29682 14.7764 4.36482 14.8479C4.43266 14.9202 4.44588 15.0152 4.39419 15.061ZM4.74414 15.6368C4.6806 15.6804 4.57671 15.6395 4.51248 15.5483C4.44894 15.4572 4.44894 15.3478 4.51385 15.304C4.57825 15.2602 4.6806 15.2996 4.74569 15.3901C4.80906 15.4828 4.80906 15.5921 4.74414 15.6368ZM5.33599 16.3036C5.27915 16.3656 5.15808 16.349 5.06947 16.2644C4.9788 16.1817 4.95355 16.0644 5.01057 16.0024C5.0681 15.9403 5.18985 15.9578 5.27915 16.0416C5.36914 16.1242 5.39662 16.2423 5.33599 16.3036ZM6.1009 16.5287C6.07583 16.6091 5.95923 16.6456 5.84176 16.6114C5.72447 16.5763 5.64771 16.4822 5.67141 16.4011C5.69579 16.3202 5.81291 16.2822 5.93123 16.3187C6.04835 16.3537 6.12529 16.4471 6.1009 16.5287ZM6.9714 16.6242C6.97432 16.7088 6.87472 16.7789 6.75142 16.7804C6.62743 16.7832 6.52714 16.7147 6.52576 16.6315C6.52576 16.5461 6.62313 16.4767 6.74712 16.4746C6.87043 16.4723 6.9714 16.5402 6.9714 16.6242ZM7.82657 16.5918C7.84134 16.6743 7.75565 16.7591 7.6332 16.7816C7.51282 16.8034 7.40137 16.7524 7.38608 16.6706C7.37114 16.586 7.45838 16.5013 7.57859 16.4794C7.70121 16.4584 7.81094 16.5079 7.82657 16.5918Z" fill="black" fill-opacity="0.2"/>
<defs>
<linearGradient id="paint0_linear_125_7" x1="10.0127" y1="20.0307" x2="10.0131" y2="0.00512649" gradientUnits="userSpaceOnUse">
<stop stop-color="#937D52"/>
<stop offset="0.489583" stop-color="#D1C4AA"/>
<stop offset="1" stop-color="#937D52"/>
</linearGradient>
</defs>
</svg>
