<svg width="20" height="21" viewBox="0 0 20 21" fill="none" xmlns="http://www.w3.org/2000/svg">
<path d="M17.9872 0.00512695H2.0128C0.907504 0.00512695 0 0.901679 0 2.00513V18.0051C0 19.1086 0.907504 20.0051 2.0128 20.0051H17.9872C19.1041 20.0051 20 19.1086 20 18.0051V2.00513C20 0.901679 19.1041 0.00512695 17.9872 0.00512695ZM6.42234 15.8327H3.72309V7.26949H6.4107V15.8327H6.42234ZM5.06108 6.22352C4.21175 6.22352 3.66492 5.62582 3.66492 4.89018C3.65329 4.14306 4.22339 3.56835 5.09599 3.56835C5.96859 3.56835 6.49215 4.14306 6.51542 4.90168C6.50378 5.62582 5.95695 6.22352 5.06108 6.22352ZM16.242 15.8327H13.5544V11.0856C13.5544 9.98214 13.1704 9.23501 12.1931 9.23501C11.4485 9.23501 11.0064 9.74076 10.8086 10.235C10.7388 10.4074 10.7155 10.6603 10.7155 10.9017V15.8327H8.02792V10.0051C8.02792 8.93616 7.99302 8.0511 7.95812 7.28099H10.2967L10.4247 8.4649H10.4712C10.8202 7.90168 11.6928 7.08559 13.1472 7.08559C14.9156 7.08559 16.242 8.258 16.242 10.7752V15.8327Z" fill="url(#paint0_linear_125_31)"/>
<path d="M17.9872 0.00512695H2.0128C0.907504 0.00512695 0 0.901679 0 2.00513V18.0051C0 19.1086 0.907504 20.0051 2.0128 20.0051H17.9872C19.1041 20.0051 20 19.1086 20 18.0051V2.00513C20 0.901679 19.1041 0.00512695 17.9872 0.00512695ZM6.42234 15.8327H3.72309V7.26949H6.4107V15.8327H6.42234ZM5.06108 6.22352C4.21175 6.22352 3.66492 5.62582 3.66492 4.89018C3.65329 4.14306 4.22339 3.56835 5.09599 3.56835C5.96859 3.56835 6.49215 4.14306 6.51542 4.90168C6.50378 5.62582 5.95695 6.22352 5.06108 6.22352ZM16.242 15.8327H13.5544V11.0856C13.5544 9.98214 13.1704 9.23501 12.1931 9.23501C11.4485 9.23501 11.0064 9.74076 10.8086 10.235C10.7388 10.4074 10.7155 10.6603 10.7155 10.9017V15.8327H8.02792V10.0051C8.02792 8.93616 7.99302 8.0511 7.95812 7.28099H10.2967L10.4247 8.4649H10.4712C10.8202 7.90168 11.6928 7.08559 13.1472 7.08559C14.9156 7.08559 16.242 8.258 16.242 10.7752V15.8327Z" fill="black" fill-opacity="0.2"/>
<defs>
<linearGradient id="paint0_linear_125_31" x1="9.65507" y1="20.0307" x2="9.6555" y2="0.00512649" gradientUnits="userSpaceOnUse">
<stop stop-color="#937D52"/>
<stop offset="0.489583" stop-color="#D1C4AA"/>
<stop offset="1" stop-color="#937D52"/>
</linearGradient>
</defs>
</svg>
