<svg width="20" height="21" viewBox="0 0 20 21" fill="none" xmlns="http://www.w3.org/2000/svg">
<path d="M16.5697 6.31612L12.8177 5.54268C12.8177 5.71772 12.8357 5.90322 12.8596 6.0977C12.9363 6.69135 13.0553 7.27878 13.2156 7.8555L13.2291 7.90636C13.57 9.11898 13.9836 10.31 14.4678 11.4728L17.2952 8.91915L16.5697 6.31612ZM17.0723 9.02537C17.0356 9.02515 16.9999 9.01309 16.9706 8.99096C16.5657 8.7093 16.2724 8.29456 16.1417 7.81893C16.011 7.3433 16.0513 6.83692 16.2555 6.38792C16.2622 6.3636 16.2741 6.34105 16.2906 6.3219C16.307 6.30276 16.3274 6.28749 16.3505 6.27721C16.3735 6.26692 16.3985 6.26187 16.4237 6.26242C16.4489 6.26297 16.4737 6.2691 16.4963 6.28038C16.5188 6.29166 16.5386 6.30781 16.5542 6.32765C16.5698 6.34749 16.5807 6.37054 16.5863 6.39513C16.5919 6.41973 16.592 6.44526 16.5865 6.46988C16.581 6.4945 16.5702 6.5176 16.5547 6.53752C16.5278 6.58988 15.9563 7.79715 17.1711 8.7157C17.1968 8.73799 17.2153 8.76748 17.2241 8.80036C17.2329 8.83324 17.2317 8.868 17.2206 8.90018C17.2095 8.93237 17.189 8.96049 17.1618 8.98093C17.1346 9.00137 17.1018 9.0132 17.0678 9.0149L17.0723 9.02537Z" fill="url(#paint0_linear_233_13)"/>
<path d="M16.5697 6.31612L12.8177 5.54268C12.8177 5.71772 12.8357 5.90322 12.8596 6.0977C12.9363 6.69135 13.0553 7.27878 13.2156 7.8555L13.2291 7.90636C13.57 9.11898 13.9836 10.31 14.4678 11.4728L17.2952 8.91915L16.5697 6.31612ZM17.0723 9.02537C17.0356 9.02515 16.9999 9.01309 16.9706 8.99096C16.5657 8.7093 16.2724 8.29456 16.1417 7.81893C16.011 7.3433 16.0513 6.83692 16.2555 6.38792C16.2622 6.3636 16.2741 6.34105 16.2906 6.3219C16.307 6.30276 16.3274 6.28749 16.3505 6.27721C16.3735 6.26692 16.3985 6.26187 16.4237 6.26242C16.4489 6.26297 16.4737 6.2691 16.4963 6.28038C16.5188 6.29166 16.5386 6.30781 16.5542 6.32765C16.5698 6.34749 16.5807 6.37054 16.5863 6.39513C16.5919 6.41973 16.592 6.44526 16.5865 6.46988C16.581 6.4945 16.5702 6.5176 16.5547 6.53752C16.5278 6.58988 15.9563 7.79715 17.1711 8.7157C17.1968 8.73799 17.2153 8.76748 17.2241 8.80036C17.2329 8.83324 17.2317 8.868 17.2206 8.90018C17.2095 8.93237 17.189 8.96049 17.1618 8.98093C17.1346 9.00137 17.1018 9.0132 17.0678 9.0149L17.0723 9.02537Z" fill="black" fill-opacity="0.2"/>
<path d="M3.5904 14.0624L7.53534 20.003L10.2476 19.2475L7.55928 16.0072L7.78667 13.8081H7.77919C7.1855 13.8094 6.59245 13.8474 6.00344 13.9218C5.62714 13.9682 5.25467 14.0417 4.88892 14.1417L4.77523 13.7333L3.5904 14.0624Z" fill="url(#paint1_linear_233_13)"/>
<path d="M3.5904 14.0624L7.53534 20.003L10.2476 19.2475L7.55928 16.0072L7.78667 13.8081H7.77919C7.1855 13.8094 6.59245 13.8474 6.00344 13.9218C5.62714 13.9682 5.25467 14.0417 4.88892 14.1417L4.77523 13.7333L3.5904 14.0624Z" fill="black" fill-opacity="0.2"/>
<path d="M4.88294 14.1417C5.24869 14.0417 5.62116 13.9682 5.99746 13.9218C6.58846 13.8471 7.1835 13.8092 7.77919 13.8081L7.79266 13.8081C11.0839 13.7856 15.0647 14.5995 16.9527 15.0273C15.6945 14.1985 14.2718 11.6823 13.3922 8.5272C12.523 5.40057 12.4317 2.54321 13.0511 1.16539C11.1542 2.99201 6.51657 7.1808 3.20443 8.10533L4.88294 14.1417Z" fill="url(#paint2_linear_233_13)"/>
<path d="M4.88294 14.1417C5.24869 14.0417 5.62116 13.9682 5.99746 13.9218C6.58846 13.8471 7.1835 13.8092 7.77919 13.8081L7.79266 13.8081C11.0839 13.7856 15.0647 14.5995 16.9527 15.0273C15.6945 14.1985 14.2718 11.6823 13.3922 8.5272C12.523 5.40057 12.4317 2.54321 13.0511 1.16539C11.1542 2.99201 6.51657 7.1808 3.20443 8.10533L4.88294 14.1417Z" fill="black" fill-opacity="0.2"/>
<path d="M18.7927 7.01774C18.2287 4.98917 17.4254 3.15358 16.5308 1.84907C15.5763 0.459284 14.6024 -0.182499 13.7871 0.0448923C13.1782 0.21394 12.7833 0.792892 12.5634 1.62616C12.1176 3.32262 12.4018 6.07676 13.1049 8.60051C13.6689 10.6291 14.4723 12.4647 15.3669 13.7632C15.6363 14.1673 15.9483 14.5415 16.2974 14.8792C16.812 15.3609 17.3147 15.6123 17.7784 15.6123C17.8902 15.6123 18.0014 15.5972 18.1091 15.5674C19.9581 15.0587 19.8414 10.7802 18.7927 7.01774ZM17.952 15.0004C17.4164 15.15 16.634 14.5636 15.8576 13.4326C15.4023 12.7515 15.0097 12.0304 14.6847 11.2783C14.281 10.3564 13.9445 9.40647 13.6779 8.43595C13.4155 7.50335 13.2186 6.55358 13.0885 5.59355C12.716 2.80501 13.1289 0.843755 13.9472 0.616364C14.4828 0.466764 15.2652 1.05469 16.0416 2.18567C16.9048 3.44081 17.6737 5.20908 18.2213 7.1808C19.4016 11.4145 19.0261 14.7012 17.952 15.0004Z" fill="url(#paint3_linear_233_13)"/>
<path d="M18.7927 7.01774C18.2287 4.98917 17.4254 3.15358 16.5308 1.84907C15.5763 0.459284 14.6024 -0.182499 13.7871 0.0448923C13.1782 0.21394 12.7833 0.792892 12.5634 1.62616C12.1176 3.32262 12.4018 6.07676 13.1049 8.60051C13.6689 10.6291 14.4723 12.4647 15.3669 13.7632C15.6363 14.1673 15.9483 14.5415 16.2974 14.8792C16.812 15.3609 17.3147 15.6123 17.7784 15.6123C17.8902 15.6123 18.0014 15.5972 18.1091 15.5674C19.9581 15.0587 19.8414 10.7802 18.7927 7.01774ZM17.952 15.0004C17.4164 15.15 16.634 14.5636 15.8576 13.4326C15.4023 12.7515 15.0097 12.0304 14.6847 11.2783C14.281 10.3564 13.9445 9.40647 13.6779 8.43595C13.4155 7.50335 13.2186 6.55358 13.0885 5.59355C12.716 2.80501 13.1289 0.843755 13.9472 0.616364C14.4828 0.466764 15.2652 1.05469 16.0416 2.18567C16.9048 3.44081 17.6737 5.20908 18.2213 7.1808C19.4016 11.4145 19.0261 14.7012 17.952 15.0004Z" fill="black" fill-opacity="0.2"/>
<path d="M2.26684 9.45074L-0.00012207 10.082L1.07134 13.9299L3.3383 13.2987L2.26684 9.45074Z" fill="url(#paint4_linear_233_13)"/>
<path d="M2.26684 9.45074L-0.00012207 10.082L1.07134 13.9299L3.3383 13.2987L2.26684 9.45074Z" fill="black" fill-opacity="0.2"/>
<path d="M3.30815 8.48403L2.09181 8.82273L3.55293 14.07L4.76928 13.7313L3.30815 8.48403Z" fill="url(#paint5_linear_233_13)"/>
<path d="M3.30815 8.48403L2.09181 8.82273L3.55293 14.07L4.76928 13.7313L3.30815 8.48403Z" fill="black" fill-opacity="0.2"/>
<path d="M4.52989 8.54964C4.49172 8.54969 4.45465 8.53693 4.42459 8.51341C4.39453 8.48989 4.37324 8.45697 4.3641 8.41992C4.35497 8.38286 4.35852 8.34382 4.37421 8.30902C4.38989 8.27423 4.41679 8.2457 4.4506 8.228C4.488 8.20556 8.77403 5.98401 11.3696 3.4812C11.385 3.46316 11.404 3.44855 11.4254 3.43829C11.4469 3.42802 11.4702 3.42234 11.4939 3.42161C11.5176 3.42087 11.5412 3.42509 11.5632 3.434C11.5852 3.44292 11.6051 3.45632 11.6216 3.47337C11.6382 3.49041 11.6509 3.51071 11.6592 3.53298C11.6674 3.55524 11.6709 3.57898 11.6694 3.60267C11.6679 3.62636 11.6615 3.64948 11.6506 3.67055C11.6397 3.69163 11.6245 3.71019 11.606 3.72505C8.97599 6.26675 4.65106 8.50776 4.60768 8.5272C4.58372 8.53994 4.55702 8.54662 4.52989 8.54665V8.54964Z" fill="url(#paint6_linear_233_13)"/>
<path d="M4.52989 8.54964C4.49172 8.54969 4.45465 8.53693 4.42459 8.51341C4.39453 8.48989 4.37324 8.45697 4.3641 8.41992C4.35497 8.38286 4.35852 8.34382 4.37421 8.30902C4.38989 8.27423 4.41679 8.2457 4.4506 8.228C4.488 8.20556 8.77403 5.98401 11.3696 3.4812C11.385 3.46316 11.404 3.44855 11.4254 3.43829C11.4469 3.42802 11.4702 3.42234 11.4939 3.42161C11.5176 3.42087 11.5412 3.42509 11.5632 3.434C11.5852 3.44292 11.6051 3.45632 11.6216 3.47337C11.6382 3.49041 11.6509 3.51071 11.6592 3.53298C11.6674 3.55524 11.6709 3.57898 11.6694 3.60267C11.6679 3.62636 11.6615 3.64948 11.6506 3.67055C11.6397 3.69163 11.6245 3.71019 11.606 3.72505C8.97599 6.26675 4.65106 8.50776 4.60768 8.5272C4.58372 8.53994 4.55702 8.54662 4.52989 8.54665V8.54964Z" fill="black" fill-opacity="0.2"/>
<path d="M5.33323 13.7108C5.29517 13.711 5.25814 13.6984 5.22805 13.6751C5.19796 13.6518 5.17653 13.6191 5.16718 13.5822L4.52091 10.9208C4.51054 10.877 4.51794 10.8308 4.54149 10.7924C4.56503 10.754 4.60281 10.7265 4.64657 10.7158C4.66819 10.7103 4.6907 10.7091 4.71279 10.7123C4.73487 10.7156 4.75608 10.7232 4.77518 10.7348C4.79427 10.7464 4.81086 10.7616 4.82397 10.7797C4.83708 10.7978 4.84645 10.8183 4.85152 10.84L5.46039 13.3428C5.93463 13.2575 7.40519 13.0436 9.5714 13.2306C9.5936 13.2325 9.61521 13.2387 9.63501 13.2489C9.6548 13.2591 9.67239 13.2732 9.68677 13.2902C9.70115 13.3072 9.71203 13.3269 9.7188 13.3481C9.72557 13.3693 9.7281 13.3917 9.72623 13.4139C9.72437 13.4361 9.71815 13.4577 9.70793 13.4775C9.69771 13.4973 9.68369 13.5149 9.66667 13.5292C9.64965 13.5436 9.62997 13.5545 9.60875 13.5613C9.58752 13.5681 9.56517 13.5706 9.54297 13.5687C6.98033 13.3533 5.38559 13.7033 5.37063 13.7078C5.35821 13.7093 5.34566 13.7093 5.33323 13.7078V13.7108Z" fill="url(#paint7_linear_233_13)"/>
<path d="M5.33323 13.7108C5.29517 13.711 5.25814 13.6984 5.22805 13.6751C5.19796 13.6518 5.17653 13.6191 5.16718 13.5822L4.52091 10.9208C4.51054 10.877 4.51794 10.8308 4.54149 10.7924C4.56503 10.754 4.60281 10.7265 4.64657 10.7158C4.66819 10.7103 4.6907 10.7091 4.71279 10.7123C4.73487 10.7156 4.75608 10.7232 4.77518 10.7348C4.79427 10.7464 4.81086 10.7616 4.82397 10.7797C4.83708 10.7978 4.84645 10.8183 4.85152 10.84L5.46039 13.3428C5.93463 13.2575 7.40519 13.0436 9.5714 13.2306C9.5936 13.2325 9.61521 13.2387 9.63501 13.2489C9.6548 13.2591 9.67239 13.2732 9.68677 13.2902C9.70115 13.3072 9.71203 13.3269 9.7188 13.3481C9.72557 13.3693 9.7281 13.3917 9.72623 13.4139C9.72437 13.4361 9.71815 13.4577 9.70793 13.4775C9.69771 13.4973 9.68369 13.5149 9.66667 13.5292C9.64965 13.5436 9.62997 13.5545 9.60875 13.5613C9.58752 13.5681 9.56517 13.5706 9.54297 13.5687C6.98033 13.3533 5.38559 13.7033 5.37063 13.7078C5.35821 13.7093 5.34566 13.7093 5.33323 13.7078V13.7108Z" fill="black" fill-opacity="0.2"/>
<defs>
<linearGradient id="paint0_linear_233_13" x1="9.43683" y1="20.0286" x2="9.43728" y2="-4.59509e-07" gradientUnits="userSpaceOnUse">
<stop stop-color="#937D52"/>
<stop offset="0.489583" stop-color="#D1C4AA"/>
<stop offset="1" stop-color="#937D52"/>
</linearGradient>
<linearGradient id="paint1_linear_233_13" x1="9.43683" y1="20.0286" x2="9.43728" y2="-4.59509e-07" gradientUnits="userSpaceOnUse">
<stop stop-color="#937D52"/>
<stop offset="0.489583" stop-color="#D1C4AA"/>
<stop offset="1" stop-color="#937D52"/>
</linearGradient>
<linearGradient id="paint2_linear_233_13" x1="9.43683" y1="20.0286" x2="9.43728" y2="-4.59509e-07" gradientUnits="userSpaceOnUse">
<stop stop-color="#937D52"/>
<stop offset="0.489583" stop-color="#D1C4AA"/>
<stop offset="1" stop-color="#937D52"/>
</linearGradient>
<linearGradient id="paint3_linear_233_13" x1="9.43683" y1="20.0286" x2="9.43728" y2="-4.59509e-07" gradientUnits="userSpaceOnUse">
<stop stop-color="#937D52"/>
<stop offset="0.489583" stop-color="#D1C4AA"/>
<stop offset="1" stop-color="#937D52"/>
</linearGradient>
<linearGradient id="paint4_linear_233_13" x1="9.43683" y1="20.0286" x2="9.43728" y2="-4.59509e-07" gradientUnits="userSpaceOnUse">
<stop stop-color="#937D52"/>
<stop offset="0.489583" stop-color="#D1C4AA"/>
<stop offset="1" stop-color="#937D52"/>
</linearGradient>
<linearGradient id="paint5_linear_233_13" x1="9.43683" y1="20.0286" x2="9.43728" y2="-4.59509e-07" gradientUnits="userSpaceOnUse">
<stop stop-color="#937D52"/>
<stop offset="0.489583" stop-color="#D1C4AA"/>
<stop offset="1" stop-color="#937D52"/>
</linearGradient>
<linearGradient id="paint6_linear_233_13" x1="9.43683" y1="20.0286" x2="9.43728" y2="-4.59509e-07" gradientUnits="userSpaceOnUse">
<stop stop-color="#937D52"/>
<stop offset="0.489583" stop-color="#D1C4AA"/>
<stop offset="1" stop-color="#937D52"/>
</linearGradient>
<linearGradient id="paint7_linear_233_13" x1="9.43683" y1="20.0286" x2="9.43728" y2="-4.59509e-07" gradientUnits="userSpaceOnUse">
<stop stop-color="#937D52"/>
<stop offset="0.489583" stop-color="#D1C4AA"/>
<stop offset="1" stop-color="#937D52"/>
</linearGradient>
</defs>
</svg>
